<?xml version="1.0" encoding="utf-8"?>
<!-- Generator: Adobe Illustrator 23.0.5, SVG Export Plug-In . SVG Version: 6.00 Build 0)  -->
<svg version="1.1" id="Layer_1" xmlns="http://www.w3.org/2000/svg" xmlns:xlink="http://www.w3.org/1999/xlink" x="0px" y="0px"
	 viewBox="0 0 383 304" style="enable-background:new 0 0 383 304;" xml:space="preserve">
<style type="text/css">
	.st0{fill:#FFFFFF;}
	.st1{font-family:'AllRoundGothicW01-Book';}
	.st2{font-size:17.7308px;}
	.st3{font-size:17.7307px;}
	.st4{font-size:17.7309px;}
	.st5{fill:#E30D16;}
</style>
<g id="Layer_1">
	<g>
		<rect y="0" class="st0" width="383" height="304"/>
		<path class="st0" d="M191.69,0C117.16,0,55.15,53.65,42.18,124.44h1.09C56.26,54.33,117.88,1.06,191.69,1.06
			c73.82,0,135.43,53.27,148.42,123.38h1.09C328.23,53.65,266.23,0,191.69,0z M341.52,170.32c-9.06,74.62-72.8,132.62-149.83,132.62
			c-77.02,0-140.77-58-149.83-132.62h-1.08C49.83,245.63,113.95,304,191.69,304c77.75,0,141.86-58.37,150.91-133.68H341.52z
			 M342.52,133.02h-1.08c0.57,4.5,0.94,9.07,1.1,13.68c0.06,1.76,0.09,3.53,0.09,5.3c0,3.27-0.1,6.52-0.31,9.74h1.06
			c0.05-0.78,0.1-1.56,0.13-2.35c0.12-2.45,0.18-4.91,0.18-7.39C343.69,145.57,343.29,139.24,342.52,133.02z"/>
		<path class="st0" d="M191.69,35.3c-54.96,0-101.04,37.99-113.42,89.14h0.85c12.39-50.64,58.16-88.33,112.57-88.33
			c54.41,0,100.18,37.69,112.57,88.33h0.86C292.74,73.29,246.65,35.3,191.69,35.3z M306.13,170.32
			c-8.81,55.23-56.77,97.57-114.44,97.57c-57.67,0-105.63-42.34-114.44-97.57h-0.83c8.79,55.75,57.05,98.39,115.27,98.39
			c58.23,0,106.49-42.64,115.28-98.39H306.13z M306.86,133.02h-0.84c0.17,0.96,0.31,1.93,0.44,2.91c0.17,1.17,0.32,2.36,0.44,3.55
			h0.83C307.5,137.31,307.21,135.15,306.86,133.02z M75.8,152c0-6.46,0.53-12.81,1.56-18.98h-0.83c-0.48,2.93-0.85,5.89-1.1,8.89
			c-0.21,2.36-0.34,4.74-0.4,7.14c-0.03,0.98-0.04,1.96-0.04,2.95c0,2.29,0.07,4.56,0.2,6.81c0.05,0.98,0.12,1.96,0.21,2.93h0.81
			c-0.05-0.49-0.08-0.98-0.11-1.48C75.9,157.53,75.8,154.78,75.8,152z"/>
		<text transform="matrix(0.4658 -0.8849 0.8849 0.4658 77.343 99.9953)" class="st0 st1 st2">A</text>
		<text transform="matrix(0.5526 -0.8334 0.8334 0.5526 85.5751 85.3712)" class="st0 st1 st2">I</text>
		<text transform="matrix(0.6321 -0.7749 0.7749 0.6321 90.5951 78.0601)" class="st0 st1 st3">R</text>
		<text transform="matrix(0.7242 -0.6896 0.6896 0.7242 101.0223 65.728)" class="st0 st1 st2">P</text>
		<text transform="matrix(0.8106 -0.5856 0.5856 0.8106 112.4764 55.2177)" class="st0 st1 st2">O</text>
		<text transform="matrix(0.8835 -0.4684 0.4684 0.8835 127.5668 44.7198)" class="st0 st1 st3">R</text>
		<text transform="matrix(0.9343 -0.3565 0.3565 0.9343 141.8097 37.6138)" class="st0 st1 st2">T</text>
		<text transform="matrix(0.9693 -0.246 0.246 0.9693 155.8705 32.5168)" class="st0 st1 st2">S</text>
		<text transform="matrix(0.9924 -0.1229 0.1229 0.9924 170.1236 29.097)" class="st0 st1 st2">H</text>
		<text transform="matrix(0.9999 0.0113 -0.0113 0.9999 187.4154 27.4558)" class="st0 st1 st4">U</text>
		<text transform="matrix(0.9906 0.1368 -0.1368 0.9906 203.8305 27.9445)" class="st0 st1 st2">T</text>
		<text transform="matrix(0.967 0.2547 -0.2547 0.967 218.7328 30.2656)" class="st0 st1 st2">T</text>
		<text transform="matrix(0.9298 0.3681 -0.3681 0.9298 233.251 34.4577)" class="st0 st1 st2">L</text>
		<text transform="matrix(0.8789 0.477 -0.477 0.8789 247.0052 40.1772)" class="st0 st1 st3">E</text>
		<text transform="matrix(0.8159 0.5782 -0.5782 0.8159 260.5112 47.8287)" class="st0 st1 st3">S</text>
		<text transform="matrix(0.7447 0.6674 -0.6674 0.7447 272.329 56.6279)" class="st0 st1 st2">4</text>
		<text transform="matrix(0.6627 0.7489 -0.7489 0.6627 282.7457 66.2843)" class="st0 st1 st2">L</text>
		<text transform="matrix(0.5675 0.8234 -0.8234 0.5675 292.4468 77.6383)" class="st0 st1 st2">E</text>
		<text transform="matrix(0.4643 0.8857 -0.8857 0.4643 300.9082 90.542)" class="st0 st1 st3">S</text>
		<text transform="matrix(0.3572 0.934 -0.934 0.3572 307.5105 103.774)" class="st0 st1 st2">S</text>
		<text transform="matrix(-0.4452 0.8954 -0.8954 -0.4452 307.1596 204.096)" class="st0 st1 st4">A</text>
		<text transform="matrix(-0.5332 0.846 -0.846 -0.5332 299.2386 218.994)" class="st0 st1 st2">I</text>
		<text transform="matrix(-0.6141 0.7892 -0.7892 -0.6141 294.4792 226.3758)" class="st0 st1 st2">R</text>
		<text transform="matrix(-0.708 0.7062 -0.7062 -0.708 284.3595 238.8833)" class="st0 st1 st2">P</text>
		<text transform="matrix(-0.7968 0.6042 -0.6042 -0.7968 273.2269 249.684)" class="st0 st1 st3">O</text>
		<text transform="matrix(-0.8724 0.4888 -0.4888 -0.8724 258.2085 260.5768)" class="st0 st1 st2">R</text>
		<text transform="matrix(-0.9258 0.378 -0.378 -0.9258 244.2297 268.0811)" class="st0 st1 st2">T</text>
		<text transform="matrix(-0.9633 0.2684 -0.2684 -0.9633 230.2968 273.3727)" class="st0 st1 st4">S</text>
		<text transform="matrix(-0.9893 0.1458 -0.1458 -0.9893 216.1217 277.1599)" class="st0 st1 st2">H</text>
		<text transform="matrix(-0.9999 0.0118 -0.0118 -0.9999 198.7997 279.3309)" class="st0 st1 st2">U</text>
		<text transform="matrix(-0.9935 -0.1138 0.1138 -0.9935 182.3952 279.1154)" class="st0 st1 st2">T</text>
		<text transform="matrix(-0.9727 -0.2322 0.2322 -0.9727 167.4783 277.0618)" class="st0 st1 st2">T</text>
		<text transform="matrix(-0.938 -0.3465 0.3465 -0.938 152.8144 273.3516)" class="st0 st1 st3">L</text>
		<text transform="matrix(-0.8897 -0.4565 0.4565 -0.8897 138.9435 267.9315)" class="st0 st1 st2">E</text>
		<text transform="matrix(-0.8293 -0.5588 0.5588 -0.8293 125.2888 260.5727)" class="st0 st1 st4">S</text>
		<text transform="matrix(-0.76 -0.65 0.65 -0.76 113.2857 252.0739)" class="st0 st1 st2">4</text>
		<text transform="matrix(-0.6798 -0.7334 0.7334 -0.6798 102.6467 242.6011)" class="st0 st1 st4">L</text>
		<text transform="matrix(-0.5864 -0.81 0.81 -0.5864 92.7377 231.507)" class="st0 st1 st2">E</text>
		<text transform="matrix(-0.4847 -0.8747 0.8747 -0.4847 83.9162 218.7241)" class="st0 st1 st3">S</text>
		<text transform="matrix(-0.3788 -0.9255 0.9255 -0.3788 77.0318 205.733)" class="st0 st1 st2">S</text>
		<g>
			<path class="st0" d="M136.71,110.51h-3.51v2.1h4.14v1.03h-5.26v-7.15h5.26v1.03h-4.14v1.97h3.51V110.51z"/>
			<path class="st0" d="M139.27,113.64h-1.25l2.13-2.74l-2.04-2.66h1.28l1.53,2.1l0.01,0l1.54-2.09h1.25l-2.05,2.66l2.14,2.74h-1.28
				l-1.62-2.2l-0.02,0L139.27,113.64z"/>
			<path class="st0" d="M149.79,111.32h-4.7v0.02c0.08,0.45,0.28,0.81,0.6,1.08c0.32,0.27,0.72,0.4,1.21,0.4
				c0.7,0,1.2-0.23,1.51-0.69h1.15c-0.21,0.51-0.55,0.91-1.02,1.21c-0.47,0.29-1.01,0.44-1.63,0.44c-0.85,0-1.55-0.27-2.09-0.8
				c-0.54-0.54-0.81-1.21-0.81-2.04s0.27-1.5,0.81-2.04c0.54-0.54,1.24-0.8,2.09-0.8c0.85,0,1.54,0.27,2.08,0.8
				c0.54,0.54,0.81,1.21,0.81,2.04V111.32z M148.06,109.41c-0.32-0.24-0.71-0.35-1.16-0.35s-0.84,0.12-1.15,0.35
				s-0.53,0.56-0.63,0.96v0.02h3.57v-0.02C148.6,109.97,148.38,109.65,148.06,109.41z"/>
			<path class="st0" d="M156.12,110.2h-1.05c-0.13-0.35-0.35-0.63-0.66-0.83c-0.31-0.2-0.67-0.31-1.08-0.31
				c-0.55,0-1,0.17-1.34,0.52c-0.34,0.35-0.51,0.8-0.51,1.35s0.17,1.01,0.51,1.35c0.34,0.35,0.79,0.52,1.34,0.52
				c0.42,0,0.78-0.1,1.08-0.31c0.31-0.2,0.52-0.48,0.66-0.83h1.05c-0.15,0.63-0.47,1.13-0.97,1.52c-0.5,0.39-1.11,0.58-1.81,0.58
				c-0.85,0-1.55-0.27-2.09-0.8c-0.54-0.54-0.81-1.21-0.81-2.04s0.27-1.5,0.81-2.04c0.54-0.54,1.24-0.8,2.09-0.8
				c0.71,0,1.31,0.19,1.81,0.58C155.65,109.06,155.97,109.57,156.12,110.2z"/>
			<path class="st0" d="M161.28,111.06v-2.82h1.04v2.82c0,0.87-0.24,1.55-0.72,2.02c-0.48,0.47-1.13,0.71-1.95,0.71
				s-1.46-0.23-1.94-0.7c-0.48-0.47-0.72-1.14-0.72-2.02v-2.82h1.04v2.82c0,0.58,0.15,1.01,0.44,1.31s0.69,0.45,1.19,0.45
				c0.5,0,0.9-0.15,1.19-0.45C161.13,112.07,161.28,111.63,161.28,111.06z"/>
			<path class="st0" d="M167.71,111.47v0.12c0,0.71-0.19,1.26-0.58,1.63c-0.39,0.37-0.92,0.56-1.58,0.56
				c-0.66,0-1.19-0.19-1.58-0.56c-0.39-0.37-0.58-0.91-0.58-1.63v-5.2h1.04v1.85h2.97v0.95h-2.97v2.4c0,0.42,0.1,0.72,0.3,0.92
				c0.2,0.2,0.48,0.3,0.83,0.3c0.76,0,1.14-0.41,1.14-1.22v-0.12H167.71z"/>
			<path class="st0" d="M169.34,107.47c-0.2,0-0.37-0.07-0.51-0.21s-0.21-0.31-0.21-0.52c0-0.2,0.07-0.37,0.21-0.51
				s0.31-0.21,0.51-0.21c0.2,0,0.38,0.07,0.51,0.21s0.21,0.31,0.21,0.51c0,0.2-0.07,0.38-0.21,0.52S169.54,107.47,169.34,107.47z
				 M169.87,113.64h-1.04v-5.4h1.04V113.64z"/>
			<path class="st0" d="M174.3,113.64h-1.26l-2.25-5.4h1.14l1.75,4.43h0.01l1.75-4.43h1.1L174.3,113.64z"/>
			<path class="st0" d="M182.63,111.32h-4.7v0.02c0.08,0.45,0.28,0.81,0.6,1.08c0.32,0.27,0.72,0.4,1.21,0.4
				c0.7,0,1.2-0.23,1.51-0.69h1.15c-0.21,0.51-0.55,0.91-1.02,1.21c-0.47,0.29-1.01,0.44-1.63,0.44c-0.85,0-1.55-0.27-2.09-0.8
				c-0.54-0.54-0.81-1.21-0.81-2.04s0.27-1.5,0.81-2.04c0.54-0.54,1.24-0.8,2.09-0.8c0.85,0,1.54,0.27,2.08,0.8
				c0.54,0.54,0.81,1.21,0.81,2.04V111.32z M180.9,109.41c-0.32-0.24-0.71-0.35-1.16-0.35s-0.84,0.12-1.15,0.35
				s-0.53,0.56-0.63,0.96v0.02h3.57v-0.02C181.43,109.97,181.22,109.65,180.9,109.41z"/>
			<path class="st0" d="M191.96,110.98v2.66h-0.95v-1.13h-0.02c-0.17,0.39-0.43,0.69-0.8,0.92s-0.8,0.34-1.28,0.34
				c-0.74,0-1.38-0.25-1.92-0.77c-0.54-0.51-0.81-1.2-0.81-2.08c0-0.82,0.27-1.5,0.81-2.04c0.54-0.54,1.24-0.8,2.09-0.8
				s1.55,0.27,2.08,0.8C191.69,109.43,191.96,110.12,191.96,110.98z M187.73,112.29c0.34,0.35,0.79,0.52,1.34,0.52s1-0.17,1.34-0.52
				c0.34-0.35,0.51-0.8,0.51-1.35s-0.17-1.01-0.51-1.35c-0.34-0.35-0.79-0.52-1.34-0.52s-1,0.17-1.34,0.52
				c-0.34,0.35-0.51,0.8-0.51,1.35S187.39,111.94,187.73,112.29z"/>
			<path class="st0" d="M198.37,113.64h-1.04v-2.81c0-0.58-0.15-1.01-0.44-1.32c-0.29-0.3-0.69-0.45-1.19-0.45
				c-0.5,0-0.9,0.15-1.19,0.45c-0.29,0.3-0.44,0.74-0.44,1.32v2.81h-1.04v-2.81c0-0.88,0.24-1.56,0.72-2.03
				c0.48-0.47,1.13-0.71,1.95-0.71c0.82,0,1.46,0.23,1.95,0.7c0.48,0.47,0.72,1.14,0.72,2.03V113.64z"/>
			<path class="st0" d="M205.01,105.88v5.02c0,0.87-0.27,1.56-0.8,2.09c-0.53,0.53-1.23,0.79-2.09,0.79c-0.85,0-1.55-0.27-2.09-0.8
				s-0.81-1.21-0.81-2.04c0-0.87,0.27-1.57,0.8-2.08s1.17-0.77,1.92-0.77c0.45,0,0.85,0.09,1.2,0.28s0.62,0.45,0.81,0.78h0.02v-3.28
				H205.01z M202.12,112.82c0.55,0,0.99-0.18,1.33-0.53c0.34-0.35,0.51-0.8,0.51-1.35s-0.17-1-0.51-1.35
				c-0.34-0.35-0.79-0.53-1.33-0.53c-0.55,0-1,0.17-1.34,0.52c-0.34,0.35-0.51,0.8-0.51,1.35s0.17,1.01,0.51,1.35
				C201.12,112.64,201.57,112.82,202.12,112.82z"/>
			<path class="st0" d="M213.8,110.51h-3.51v2.1h4.14v1.03h-5.26v-7.15h5.26v1.03h-4.14v1.97h3.51V110.51z"/>
			<path class="st0" d="M216.36,113.64h-1.25l2.13-2.74l-2.04-2.66h1.28l1.53,2.1l0.01,0l1.54-2.09h1.25l-2.05,2.66l2.14,2.74h-1.28
				l-1.62-2.2l-0.02,0L216.36,113.64z"/>
			<path class="st0" d="M226.79,110.2h-1.05c-0.13-0.35-0.35-0.63-0.66-0.83c-0.31-0.2-0.67-0.31-1.08-0.31
				c-0.55,0-1,0.17-1.34,0.52c-0.34,0.35-0.51,0.8-0.51,1.35s0.17,1.01,0.51,1.35c0.34,0.35,0.79,0.52,1.34,0.52
				c0.42,0,0.78-0.1,1.08-0.31s0.52-0.48,0.66-0.83h1.05c-0.15,0.63-0.47,1.13-0.97,1.52c-0.5,0.39-1.11,0.58-1.81,0.58
				c-0.85,0-1.55-0.27-2.09-0.8s-0.81-1.21-0.81-2.04s0.27-1.5,0.81-2.04c0.54-0.54,1.24-0.8,2.09-0.8c0.71,0,1.31,0.19,1.81,0.58
				C226.32,109.06,226.64,109.57,226.79,110.2z"/>
			<path class="st0" d="M228.89,113.64h-1.04v-7.76h1.04V113.64z"/>
			<path class="st0" d="M234.44,111.06v-2.82h1.04v2.82c0,0.87-0.24,1.55-0.72,2.02c-0.48,0.47-1.13,0.71-1.95,0.71
				c-0.82,0-1.46-0.23-1.95-0.7c-0.48-0.47-0.72-1.14-0.72-2.02v-2.82h1.04v2.82c0,0.58,0.15,1.01,0.44,1.31s0.69,0.45,1.19,0.45
				c0.5,0,0.9-0.15,1.19-0.45C234.29,112.07,234.44,111.63,234.44,111.06z"/>
			<path class="st0" d="M240.69,109.76h-1.03c-0.02-0.21-0.12-0.38-0.31-0.52s-0.44-0.2-0.75-0.2c-0.34,0-0.61,0.07-0.8,0.21
				c-0.19,0.14-0.29,0.32-0.29,0.55c0,0.17,0.08,0.3,0.25,0.38c0.17,0.09,0.37,0.15,0.62,0.19c0.25,0.04,0.51,0.08,0.8,0.12
				c0.29,0.04,0.55,0.1,0.8,0.19s0.45,0.24,0.61,0.47c0.16,0.23,0.25,0.53,0.25,0.9c0,0.51-0.21,0.93-0.62,1.25
				c-0.41,0.32-0.95,0.49-1.62,0.49c-0.66,0-1.2-0.16-1.61-0.48s-0.62-0.73-0.63-1.23h1.05c0.01,0.23,0.12,0.42,0.33,0.56
				c0.2,0.14,0.49,0.21,0.85,0.21c0.39,0,0.68-0.07,0.89-0.22c0.21-0.15,0.31-0.34,0.31-0.58c0-0.17-0.08-0.31-0.25-0.4
				c-0.16-0.09-0.37-0.16-0.61-0.2c-0.25-0.04-0.51-0.07-0.8-0.12c-0.29-0.04-0.55-0.1-0.8-0.18c-0.25-0.08-0.45-0.23-0.62-0.46
				c-0.16-0.23-0.25-0.51-0.25-0.86c0-0.5,0.19-0.92,0.58-1.24s0.9-0.49,1.54-0.49c0.63,0,1.13,0.16,1.51,0.47
				C240.47,108.88,240.67,109.28,240.69,109.76z"/>
			<path class="st0" d="M242.41,107.47c-0.2,0-0.37-0.07-0.51-0.21c-0.14-0.14-0.21-0.31-0.21-0.52c0-0.2,0.07-0.37,0.21-0.51
				c0.14-0.14,0.31-0.21,0.51-0.21c0.2,0,0.38,0.07,0.51,0.21c0.14,0.14,0.21,0.31,0.21,0.51c0,0.2-0.07,0.38-0.21,0.52
				C242.79,107.4,242.62,107.47,242.41,107.47z M242.94,113.64h-1.04v-5.4h1.04V113.64z"/>
			<path class="st0" d="M247.37,113.64h-1.26l-2.25-5.4H245l1.75,4.43h0.01l1.75-4.43h1.1L247.37,113.64z"/>
			<path class="st0" d="M255.7,111.32H251v0.02c0.08,0.45,0.28,0.81,0.6,1.08c0.32,0.27,0.72,0.4,1.21,0.4c0.7,0,1.2-0.23,1.51-0.69
				h1.15c-0.21,0.51-0.55,0.91-1.02,1.21c-0.47,0.29-1.01,0.44-1.63,0.44c-0.85,0-1.55-0.27-2.09-0.8s-0.81-1.21-0.81-2.04
				s0.27-1.5,0.81-2.04c0.54-0.54,1.24-0.8,2.09-0.8c0.84,0,1.54,0.27,2.08,0.8c0.54,0.54,0.81,1.21,0.81,2.04V111.32z
				 M253.97,109.41c-0.32-0.24-0.71-0.35-1.16-0.35s-0.84,0.12-1.15,0.35c-0.32,0.24-0.53,0.56-0.63,0.96v0.02h3.57v-0.02
				C254.51,109.97,254.29,109.65,253.97,109.41z"/>
		</g>
		<g>
			<path class="st0" d="M135.97,211.42h-4.57v-0.9l2.66-2.49c0.62-0.58,0.93-1.14,0.93-1.66c0-0.42-0.11-0.75-0.33-1.01
				s-0.53-0.38-0.93-0.38s-0.71,0.13-0.94,0.4c-0.23,0.27-0.34,0.62-0.34,1.07v0.1h-1.03v-0.1c0-0.74,0.21-1.33,0.62-1.78
				c0.42-0.45,0.98-0.67,1.7-0.67c0.7,0,1.27,0.22,1.69,0.67s0.63,1.01,0.63,1.7c0,0.45-0.1,0.85-0.3,1.19
				c-0.2,0.34-0.52,0.7-0.94,1.09l-1.96,1.8l0.01,0.03h3.1V211.42z"/>
			<path class="st0" d="M141.46,211.42h-1.06v-1.59h-3.52v-0.9l3.52-4.78h1.06v4.74h0.78v0.95h-0.78V211.42z M140.4,205.63l-0.02,0
				l-2.34,3.23v0.02h2.36V205.63z"/>
			<path class="st0" d="M145.85,206.76c-0.5,0-0.91,0.16-1.21,0.47s-0.45,0.76-0.45,1.33v2.86h-1.06v-7.9h1.06v3.26h0.02
				c0.38-0.67,0.98-1,1.81-1c0.73,0,1.34,0.24,1.82,0.71s0.72,1.16,0.72,2.07v2.86h-1.06v-2.86c0-0.59-0.15-1.03-0.44-1.34
				C146.77,206.91,146.36,206.76,145.85,206.76z"/>
			<path class="st0" d="M154.38,208.25h-1.05v-0.07c0-0.95-0.44-1.42-1.31-1.42s-1.31,0.47-1.31,1.42v3.24h-1.06v-3.24
				c0-0.79,0.21-1.38,0.64-1.79c0.43-0.41,1-0.61,1.73-0.61c0.73,0,1.3,0.2,1.72,0.61s0.63,1.01,0.63,1.8V208.25z"/>
			<path class="st0" d="M159.52,211.42h-1.06v-7.9h1.06V211.42z"/>
			<path class="st0" d="M161.52,205.14c-0.2,0-0.37-0.07-0.52-0.22s-0.22-0.32-0.22-0.53c0-0.2,0.07-0.37,0.22-0.52
				s0.32-0.22,0.52-0.22c0.21,0,0.38,0.07,0.52,0.22s0.21,0.32,0.21,0.52c0,0.21-0.07,0.38-0.21,0.53S161.73,205.14,161.52,205.14z
				 M162.06,211.42H161v-5.5h1.06V211.42z"/>
			<path class="st0" d="M168.08,211.42h-1.06v-3.18c0-0.48-0.12-0.85-0.36-1.1c-0.24-0.25-0.56-0.38-0.95-0.38
				c-0.4,0-0.72,0.12-0.96,0.37c-0.24,0.25-0.36,0.62-0.36,1.11v3.18h-1.06v-3.18c0-0.81,0.21-1.42,0.63-1.84
				c0.42-0.42,0.97-0.62,1.64-0.62c0.89,0,1.53,0.36,1.92,1.07h0.02c0.39-0.71,1.03-1.07,1.92-1.07c0.67,0,1.22,0.21,1.64,0.62
				c0.42,0.42,0.63,1.03,0.63,1.84v3.18h-1.06v-3.18c0-0.49-0.12-0.86-0.36-1.11c-0.24-0.25-0.56-0.37-0.96-0.37
				c-0.39,0-0.71,0.13-0.95,0.38s-0.36,0.62-0.36,1.1V211.42z"/>
			<path class="st0" d="M177.71,206.6c0.55,0.54,0.83,1.24,0.83,2.07c0,0.84-0.28,1.53-0.83,2.08c-0.55,0.54-1.26,0.82-2.13,0.82
				s-1.58-0.27-2.13-0.82c-0.55-0.54-0.83-1.24-0.83-2.08c0-0.84,0.28-1.53,0.83-2.07c0.55-0.55,1.26-0.82,2.13-0.82
				S177.15,206.05,177.71,206.6z M174.21,210.05c0.35,0.36,0.8,0.53,1.37,0.53s1.02-0.18,1.37-0.53c0.35-0.36,0.52-0.82,0.52-1.38
				s-0.17-1.02-0.52-1.38c-0.35-0.36-0.81-0.53-1.37-0.53s-1.02,0.18-1.37,0.53c-0.35,0.36-0.52,0.82-0.52,1.38
				S173.86,209.69,174.21,210.05z"/>
			<path class="st0" d="M183.77,208.79v-2.87h1.06v2.87c0,0.89-0.24,1.57-0.73,2.05c-0.49,0.48-1.15,0.72-1.98,0.72
				c-0.83,0-1.49-0.24-1.98-0.71c-0.49-0.47-0.73-1.16-0.73-2.06v-2.87h1.06v2.87c0,0.59,0.15,1.03,0.44,1.33
				c0.3,0.3,0.7,0.46,1.21,0.46s0.92-0.15,1.21-0.46C183.63,209.82,183.77,209.38,183.77,208.79z"/>
			<path class="st0" d="M190.14,207.47h-1.05c-0.01-0.21-0.12-0.39-0.31-0.53c-0.19-0.14-0.45-0.21-0.77-0.21
				c-0.35,0-0.62,0.07-0.82,0.21c-0.2,0.14-0.29,0.33-0.29,0.56c0,0.17,0.08,0.3,0.25,0.39c0.17,0.09,0.38,0.15,0.63,0.19
				c0.25,0.04,0.52,0.08,0.81,0.12s0.56,0.11,0.81,0.19c0.25,0.08,0.46,0.24,0.63,0.48s0.25,0.54,0.25,0.92
				c0,0.52-0.21,0.94-0.63,1.27c-0.42,0.33-0.97,0.5-1.65,0.5c-0.67,0-1.22-0.16-1.64-0.48c-0.42-0.32-0.63-0.74-0.65-1.25h1.07
				c0.02,0.24,0.13,0.43,0.33,0.57s0.5,0.21,0.87,0.21c0.39,0,0.7-0.07,0.91-0.22c0.21-0.15,0.32-0.34,0.32-0.59
				c0-0.18-0.08-0.31-0.25-0.41c-0.17-0.1-0.38-0.16-0.63-0.2c-0.25-0.04-0.52-0.08-0.81-0.12c-0.29-0.04-0.56-0.11-0.81-0.19
				c-0.25-0.08-0.46-0.24-0.63-0.47c-0.17-0.23-0.25-0.52-0.25-0.88c0-0.51,0.2-0.93,0.6-1.26c0.4-0.33,0.92-0.5,1.56-0.5
				c0.64,0,1.15,0.16,1.54,0.48C189.92,206.58,190.12,206.98,190.14,207.47z"/>
			<path class="st0" d="M191.9,205.14c-0.2,0-0.37-0.07-0.52-0.22s-0.22-0.32-0.22-0.53c0-0.2,0.07-0.37,0.22-0.52
				s0.32-0.22,0.52-0.22c0.21,0,0.38,0.07,0.52,0.22s0.21,0.32,0.21,0.52c0,0.21-0.07,0.38-0.21,0.53S192.1,205.14,191.9,205.14z
				 M192.43,211.42h-1.06v-5.5h1.06V211.42z"/>
			<path class="st0" d="M199.14,211.42h-1.06v-2.86c0-0.59-0.15-1.03-0.44-1.34c-0.3-0.31-0.7-0.46-1.21-0.46s-0.92,0.15-1.21,0.46
				s-0.45,0.75-0.45,1.34v2.86h-1.06v-2.86c0-0.9,0.25-1.58,0.73-2.06s1.15-0.72,1.98-0.72c0.83,0,1.49,0.24,1.98,0.71
				c0.49,0.48,0.73,1.17,0.73,2.07V211.42z"/>
			<path class="st0" d="M205.9,209.06h-4.78v0.02c0.08,0.46,0.29,0.83,0.61,1.1s0.74,0.41,1.24,0.41c0.71,0,1.22-0.23,1.54-0.7h1.17
				c-0.22,0.52-0.56,0.93-1.04,1.23c-0.48,0.3-1.03,0.45-1.66,0.45c-0.87,0-1.58-0.27-2.13-0.82s-0.83-1.24-0.83-2.08
				c0-0.84,0.28-1.53,0.83-2.07c0.55-0.55,1.26-0.82,2.13-0.82c0.86,0,1.56,0.27,2.11,0.82c0.55,0.54,0.82,1.24,0.82,2.07V209.06z
				 M204.14,207.12c-0.33-0.24-0.72-0.36-1.18-0.36c-0.46,0-0.85,0.12-1.17,0.36c-0.32,0.24-0.54,0.57-0.64,0.97v0.02h3.64v-0.02
				C204.68,207.68,204.47,207.36,204.14,207.12z"/>
			<path class="st0" d="M213.94,207.47h-1.05c-0.01-0.21-0.12-0.39-0.31-0.53c-0.19-0.14-0.45-0.21-0.77-0.21
				c-0.35,0-0.62,0.07-0.82,0.21c-0.2,0.14-0.29,0.33-0.29,0.56c0,0.17,0.08,0.3,0.25,0.39c0.17,0.09,0.38,0.15,0.63,0.19
				c0.25,0.04,0.52,0.08,0.81,0.12s0.56,0.11,0.81,0.19s0.46,0.24,0.63,0.48s0.25,0.54,0.25,0.92c0,0.52-0.21,0.94-0.63,1.27
				s-0.97,0.5-1.65,0.5c-0.67,0-1.22-0.16-1.63-0.48c-0.42-0.32-0.63-0.74-0.65-1.25h1.07c0.01,0.24,0.13,0.43,0.33,0.57
				c0.21,0.14,0.5,0.21,0.87,0.21c0.39,0,0.7-0.07,0.91-0.22c0.21-0.15,0.32-0.34,0.32-0.59c0-0.18-0.08-0.31-0.25-0.41
				c-0.17-0.1-0.38-0.16-0.63-0.2c-0.25-0.04-0.52-0.08-0.81-0.12c-0.29-0.04-0.56-0.11-0.81-0.19c-0.25-0.08-0.46-0.24-0.63-0.47
				c-0.17-0.23-0.25-0.52-0.25-0.88c0-0.51,0.2-0.93,0.6-1.26c0.4-0.33,0.92-0.5,1.56-0.5c0.64,0,1.15,0.16,1.54,0.48
				C213.73,206.58,213.93,206.98,213.94,207.47z"/>
			<path class="st0" d="M220.65,209.06h-4.78v0.02c0.08,0.46,0.29,0.83,0.61,1.1s0.74,0.41,1.24,0.41c0.71,0,1.22-0.23,1.54-0.7
				h1.17c-0.22,0.52-0.56,0.93-1.04,1.23c-0.48,0.3-1.03,0.45-1.66,0.45c-0.87,0-1.58-0.27-2.13-0.82s-0.83-1.24-0.83-2.08
				c0-0.84,0.28-1.53,0.83-2.07c0.55-0.55,1.26-0.82,2.13-0.82c0.86,0,1.56,0.27,2.11,0.82c0.55,0.54,0.82,1.24,0.82,2.07V209.06z
				 M218.89,207.12c-0.33-0.24-0.72-0.36-1.18-0.36c-0.46,0-0.85,0.12-1.17,0.36c-0.32,0.24-0.54,0.57-0.64,0.97v0.02h3.64v-0.02
				C219.44,207.68,219.22,207.36,218.89,207.12z"/>
			<path class="st0" d="M226.25,208.25h-1.05v-0.07c0-0.95-0.44-1.42-1.31-1.42c-0.88,0-1.31,0.47-1.31,1.42v3.24h-1.06v-3.24
				c0-0.79,0.21-1.38,0.64-1.79s1-0.61,1.73-0.61c0.73,0,1.3,0.2,1.72,0.61c0.42,0.41,0.63,1.01,0.63,1.8V208.25z"/>
			<path class="st0" d="M230.26,211.42h-1.28l-2.29-5.5h1.16l1.79,4.51h0.01l1.79-4.51h1.12L230.26,211.42z"/>
			<path class="st0" d="M234.04,205.14c-0.2,0-0.37-0.07-0.52-0.22s-0.22-0.32-0.22-0.53c0-0.2,0.07-0.37,0.22-0.52
				s0.32-0.22,0.52-0.22c0.21,0,0.38,0.07,0.52,0.22s0.21,0.32,0.21,0.52c0,0.21-0.07,0.38-0.21,0.53S234.24,205.14,234.04,205.14z
				 M234.57,211.42h-1.06v-5.5h1.06V211.42z"/>
			<path class="st0" d="M241.42,207.92h-1.07c-0.13-0.36-0.36-0.64-0.67-0.85c-0.31-0.21-0.68-0.31-1.1-0.31
				c-0.56,0-1.02,0.18-1.37,0.53c-0.35,0.36-0.52,0.82-0.52,1.38s0.17,1.02,0.52,1.38c0.35,0.36,0.8,0.53,1.37,0.53
				c0.42,0,0.79-0.1,1.1-0.31c0.31-0.21,0.53-0.49,0.67-0.85h1.07c-0.15,0.64-0.48,1.15-0.99,1.55c-0.51,0.39-1.13,0.59-1.85,0.59
				c-0.87,0-1.58-0.27-2.13-0.82s-0.83-1.24-0.83-2.08c0-0.84,0.28-1.53,0.83-2.07c0.55-0.55,1.26-0.82,2.13-0.82
				c0.72,0,1.33,0.2,1.85,0.59C240.94,206.76,241.27,207.28,241.42,207.92z"/>
			<path class="st0" d="M247.97,209.06h-4.78v0.02c0.08,0.46,0.29,0.83,0.61,1.1s0.74,0.41,1.24,0.41c0.71,0,1.22-0.23,1.54-0.7
				h1.17c-0.22,0.52-0.56,0.93-1.04,1.23c-0.48,0.3-1.03,0.45-1.66,0.45c-0.87,0-1.58-0.27-2.13-0.82s-0.83-1.24-0.83-2.08
				c0-0.84,0.28-1.53,0.83-2.07c0.55-0.55,1.26-0.82,2.13-0.82c0.86,0,1.56,0.27,2.11,0.82c0.55,0.54,0.82,1.24,0.82,2.07V209.06z
				 M246.22,207.12c-0.33-0.24-0.72-0.36-1.18-0.36c-0.46,0-0.85,0.12-1.17,0.36c-0.32,0.24-0.54,0.57-0.64,0.97v0.02h3.64v-0.02
				C246.76,207.68,246.54,207.36,246.22,207.12z"/>
			<path class="st0" d="M253.06,207.47h-1.05c-0.01-0.21-0.12-0.39-0.31-0.53c-0.19-0.14-0.45-0.21-0.77-0.21
				c-0.35,0-0.62,0.07-0.82,0.21c-0.2,0.14-0.29,0.33-0.29,0.56c0,0.17,0.08,0.3,0.25,0.39c0.17,0.09,0.38,0.15,0.63,0.19
				c0.25,0.04,0.52,0.08,0.81,0.12s0.56,0.11,0.81,0.19s0.46,0.24,0.63,0.48s0.25,0.54,0.25,0.92c0,0.52-0.21,0.94-0.63,1.27
				s-0.97,0.5-1.65,0.5c-0.67,0-1.22-0.16-1.63-0.48c-0.42-0.32-0.63-0.74-0.65-1.25h1.07c0.01,0.24,0.13,0.43,0.33,0.57
				c0.21,0.14,0.5,0.21,0.87,0.21c0.39,0,0.7-0.07,0.91-0.22c0.21-0.15,0.32-0.34,0.32-0.59c0-0.18-0.08-0.31-0.25-0.41
				c-0.17-0.1-0.38-0.16-0.63-0.2c-0.25-0.04-0.52-0.08-0.81-0.12c-0.29-0.04-0.56-0.11-0.81-0.19c-0.25-0.08-0.46-0.24-0.63-0.47
				c-0.17-0.23-0.25-0.52-0.25-0.88c0-0.51,0.2-0.93,0.6-1.26c0.4-0.33,0.92-0.5,1.56-0.5c0.64,0,1.15,0.16,1.54,0.48
				C252.84,206.58,253.04,206.98,253.06,207.47z"/>
		</g>
		<g>
			<path class="st0" d="M90.25,136.12c2.16,2.03,3.3,4.91,3.3,8.18c0,4.16-1.85,7.68-5.29,9.61c-0.6-2.06-0.92-4.25-0.92-6.53
				C87.34,143.27,88.39,139.44,90.25,136.12z"/>
			<path class="st0" d="M121.76,136.45c-2.78-2.39-6.47-3.77-10.43-3.77c-4.04,0-7.83,1.45-10.63,3.94
				c-2.92,2.6-4.78,6.34-4.78,10.76c0,3.23,0.99,6.11,2.67,8.44c2.82,3.91,7.56,6.3,12.74,6.3c3.96,0,7.65-1.39,10.43-3.79
				c3.04-2.61,4.99-6.43,4.99-10.95C126.75,142.86,124.8,139.05,121.76,136.45z M111.33,155.45c-4.81,0-7.56-3.55-7.56-8.07
				c0-4.52,2.75-8.02,7.56-8.02c4.82,0,7.56,3.5,7.56,8.02C118.89,151.9,116.15,155.45,111.33,155.45z"/>
			<path class="st0" d="M135.33,147.38c0,5.46-1.84,10.43-4.97,14.36h-0.02v-28.72C133.48,136.95,135.33,141.92,135.33,147.38z"/>
			<path class="st0" d="M22.59,149.68l-8.19-17.17c-0.12-0.29-0.38-0.29-0.5,0l-13.98,29.23h7.51l1.06-2.45H19.3l1.1,2.45h7.94
				L22.59,149.68z M10.94,153.54l2.87-6.67l2.96,6.67H10.94z"/>
			<polygon class="st0" points="35.43,156.68 37.84,161.74 31.17,161.74 31.17,147.75 			"/>
			<path class="st0" d="M41.93,170.32h-0.07c-0.01-0.06-0.02-0.13-0.02-0.19L41.93,170.32z"/>
			<polygon class="st0" points="22.59,149.68 28.34,161.74 22.59,161.74 			"/>
			<rect x="31.17" y="133.02" class="st0" width="7.69" height="28.72"/>
			<path class="st0" d="M41.84,170.13l0.09,0.19h-0.07C41.85,170.26,41.84,170.19,41.84,170.13z"/>
			<rect x="44.01" y="133.02" class="st0" width="3.43" height="28.72"/>
			<path class="st0" d="M41.84,170.13l0.09,0.19h-0.07C41.85,170.26,41.84,170.19,41.84,170.13z"/>
			<rect x="35.43" y="133.02" class="st0" width="3.43" height="28.72"/>
			<path class="st0" d="M62,153.46c3.25-1.87,4.98-5.11,4.98-9.16c0-4.04-1.74-7.48-4.98-9.46c-1.87-1.16-4.26-1.82-7.09-1.82h-10.9
				v28.72h7.69v-6.59h2.87l4.01,6.59h8.32l-4.9-7.82V153.46z M54.53,149.03H51.7v-9.51h2.83c3.46,0,4.73,1.99,4.73,4.78
				C59.26,147.08,57.99,149.03,54.53,149.03z"/>
			<path class="st0" d="M77.03,161.74h-6.45v-28.72h1.64c1.73,2.54,2.85,5.55,3.21,8.89c0.09,0.78,0.13,1.58,0.13,2.39
				c0,1.65-0.18,3.24-0.53,4.75c-0.47,2.08-1.27,4.01-2.36,5.74l2.52,4.02l0.91,1.45L77.03,161.74z"/>
			<path class="st0" d="M66.98,144.3c0,4.05-1.73,7.29-4.98,9.16v-18.62C65.24,136.82,66.98,140.26,66.98,144.3z"/>
			<polygon class="st0" points="62,153.92 66.9,161.74 62,161.74 			"/>
			<path class="st0" d="M90.25,136.12c-2.04-1.94-5.01-3.1-8.78-3.1H70.58v28.72h7.68v-6.21h3.21c2.69,0,4.96-0.58,6.79-1.62
				c3.44-1.93,5.29-5.45,5.29-9.61C93.55,141.03,92.41,138.15,90.25,136.12z M81.09,149.03h-2.83v-9.51h2.83
				c3.47,0,4.73,1.99,4.73,4.78C85.82,147.08,84.56,149.03,81.09,149.03z M100.7,136.62c-2.92,2.6-4.78,6.34-4.78,10.76
				c0,3.23,0.99,6.11,2.67,8.44c2.26-3.18,3.54-7.12,3.54-11.52C102.13,141.53,101.63,138.95,100.7,136.62z"/>
			<path class="st0" d="M121.76,158.33v-21.88c3.04,2.6,4.99,6.41,4.99,10.93C126.75,151.9,124.8,155.72,121.76,158.33z"/>
			<path class="st0" d="M152.74,148.06c0.38-1.15,0.58-2.41,0.58-3.76c0-4.63-2.29-8.48-6.51-10.24c-1.59-0.67-3.45-1.04-5.57-1.04
				h-10.9v28.72h7.69v-6.59h2.87l4.01,6.59h8.32l-5.11-8.15C150.4,152.34,151.97,150.43,152.74,148.06z M140.86,149.03h-2.83v-9.51
				h2.83c3.46,0,4.73,1.99,4.73,4.78C145.59,147.08,144.32,149.03,140.86,149.03z"/>
			<path class="st0" d="M158.55,133.02c1.3,1.91,2.25,4.08,2.79,6.46h-5.95v-6.46H158.55z"/>
			<polygon class="st0" points="163.36,161.74 162.99,161.74 162.99,161.15 			"/>
			<path class="st0" d="M153.32,144.3c0,1.35-0.2,2.61-0.58,3.76h-5.93v-14C151.03,135.82,153.32,139.67,153.32,144.3z"/>
			<path class="st0" d="M179,156.84l0.26-0.2v0.53C179.17,157.06,179.08,156.95,179,156.84z"/>
			<polygon class="st0" points="178.28,133.02 178.28,139.48 170.68,139.48 170.68,161.74 162.99,161.74 162.99,139.48 
				155.39,139.48 155.39,133.02 			"/>
			<path class="st0" d="M186.86,133.26v14.8h-2.62c-2.09-1.5-3.38-3.67-3.38-6.8C180.86,137.06,183.44,134.37,186.86,133.26z"/>
			<polygon class="st0" points="166.99,155.12 170.68,152.35 170.68,160.05 			"/>
			<path class="st0" d="M174.39,133.02h3.89v6.46h-5.91C172.61,137.13,173.31,134.96,174.39,133.02z"/>
			<path class="st0" d="M201.8,153.08c0,3.65-1.58,6.6-5.07,8.07c-1.55,0.65-3.48,1.01-5.82,1.01c-6.16,0-9.8-2.69-11.65-4.99
				c-0.09-0.11-0.18-0.22-0.26-0.33l0.26-0.2l5.31-3.98c1.4,1.73,3.13,3.12,6,3.12c2.28,0,3.63-0.67,3.63-2.28
				c0-1.22-0.93-1.81-2.83-2.45l-3.38-1.14c-1.41-0.47-2.69-1.07-3.75-1.85c-2.09-1.5-3.38-3.67-3.38-6.8c0-4.2,2.58-6.89,6-8
				c1.18-0.39,2.47-0.58,3.79-0.58c2.56,0,4.54,0.46,6.08,1.18c1.53,0.7,2.64,1.64,3.47,2.62l-3.47,3.64l-0.92,0.97
				c-1.19-1.23-2.45-2.07-4.73-2.07c-1.86,0-2.79,0.84-2.79,1.98c0,1.1,0.63,1.65,2.03,2.11l3.8,1.27c0.98,0.32,1.85,0.67,2.61,1.05
				C200.46,147.25,201.8,149.72,201.8,153.08z"/>
			<path class="st0" d="M206.54,142.26c3.01,3.48,3.84,7.48,3.84,10.82c0,3-0.7,6-2.15,8.66h-2.92v-28.72h3.21l3.22,3.79
				L206.54,142.26z"/>
			<path class="st0" d="M200.2,136.48l-3.47,3.64v-6.26C198.26,134.56,199.37,135.5,200.2,136.48z"/>
			<path class="st0" d="M196.73,161.15v-15.72c3.73,1.82,5.07,4.29,5.07,7.65C201.8,156.73,200.22,159.68,196.73,161.15z"/>
			<path class="st0" d="M239.23,133.02v26.55c-2.43-1.9-3.89-4.88-3.89-8.94v-17.61H239.23z"/>
			<polygon class="st0" points="230.65,133.02 230.65,161.74 222.96,161.74 222.96,152.62 213,152.62 213,161.74 205.31,161.74 
				205.31,133.02 213,133.02 213,146.15 222.96,146.15 222.96,133.02 			"/>
			<path class="st0" d="M226.76,133.02h3.89v28.72h-0.9c-1.93-3.09-2.99-6.85-2.99-11.11V133.02z"/>
			<path class="st0" d="M260.26,133.02v17.61c0,7.73-5.28,11.53-12.46,11.53c-3.41,0-6.38-0.86-8.57-2.59
				c-2.43-1.9-3.89-4.88-3.89-8.94v-17.61h7.69v17.53c0,3.25,1.52,5.11,4.77,5.11s4.77-1.86,4.77-5.11v-17.53H260.26z"/>
			<rect x="263.43" y="133.02" class="st0" width="5.41" height="6.46"/>
			<rect x="254.85" y="133.02" class="st0" width="5.41" height="15.04"/>
			<polygon class="st0" points="286.32,133.02 286.32,139.48 278.72,139.48 278.72,161.74 271.03,161.74 271.03,139.48 
				263.43,139.48 263.43,133.02 			"/>
			<rect x="288.69" y="133.02" class="st0" width="6.21" height="6.46"/>
			<rect x="280.11" y="133.02" class="st0" width="6.21" height="6.46"/>
			<polygon class="st0" points="311.58,133.02 311.58,139.48 303.97,139.48 303.97,161.74 296.29,161.74 296.29,139.48 
				288.69,139.48 288.69,133.02 			"/>
			<rect x="315.04" y="133.02" class="st0" width="5.11" height="15.04"/>
			<rect x="306.46" y="133.02" class="st0" width="5.12" height="6.46"/>
			<polygon class="st0" points="334.93,155.28 334.93,161.74 315.04,161.74 315.04,133.02 322.73,133.02 322.73,155.28 			"/>
			<rect x="338.48" y="146.7" class="st0" width="5.03" height="15.04"/>
			<rect x="329.9" y="155.28" class="st0" width="5.03" height="6.46"/>
			<polygon class="st0" points="359.22,155.28 359.22,161.74 338.48,161.74 338.48,133.02 358.63,133.02 358.63,139.48 
				346.17,139.48 346.17,146.15 356.56,146.15 356.56,152.28 346.17,152.28 346.17,155.28 			"/>
			<path class="st0" d="M367.8,146.7v2.48c-3.18-1.49-5.29-3.92-5.29-7.92c0-3.65,1.95-6.16,4.7-7.47v12.91H367.8z"/>
			<path class="st0" d="M367.8,154.26v7.28c-3.6-0.98-5.87-2.99-7.15-4.7l5.57-4.18C366.7,153.25,367.21,153.8,367.8,154.26z"/>
			<path class="st0" d="M22.59,149.68l-8.19-17.17c-0.12-0.29-0.38-0.29-0.5,0l-13.98,29.23h7.51l1.06-2.45H19.3l1.1,2.45h7.94
				L22.59,149.68z M10.94,153.54l2.87-6.67l2.96,6.67H10.94z"/>
			<rect x="31.17" y="133.02" class="st0" width="7.69" height="28.72"/>
			<path class="st0" d="M61.79,153.59c0.07-0.04,0.14-0.08,0.21-0.13c3.25-1.87,4.98-5.11,4.98-9.16c0-4.04-1.74-7.48-4.98-9.46
				c-1.87-1.16-4.26-1.82-7.09-1.82h-10.9v28.72h7.69v-6.59h2.87l4.01,6.59h8.32l-4.9-7.82L61.79,153.59z M54.53,149.03H51.7v-9.51
				h2.83c3.46,0,4.73,1.99,4.73,4.78C59.26,147.08,57.99,149.03,54.53,149.03z"/>
			<path class="st0" d="M90.25,136.12c-2.04-1.94-5.01-3.1-8.78-3.1H70.58v28.72h7.68v-6.21h3.21c2.69,0,4.96-0.58,6.79-1.62
				c3.44-1.93,5.29-5.45,5.29-9.61C93.55,141.03,92.41,138.15,90.25,136.12z M81.09,149.03h-2.83v-9.51h2.83
				c3.47,0,4.73,1.99,4.73,4.78C85.82,147.08,84.56,149.03,81.09,149.03z"/>
			<path class="st0" d="M121.76,136.45c-2.78-2.39-6.47-3.77-10.43-3.77c-4.04,0-7.83,1.45-10.63,3.94
				c-2.92,2.6-4.78,6.34-4.78,10.76c0,3.23,0.99,6.11,2.67,8.44c2.82,3.91,7.56,6.3,12.74,6.3c3.96,0,7.65-1.39,10.43-3.79
				c3.04-2.61,4.99-6.43,4.99-10.95C126.75,142.86,124.8,139.05,121.76,136.45z M111.33,155.45c-4.81,0-7.56-3.55-7.56-8.07
				c0-4.52,2.75-8.02,7.56-8.02c4.82,0,7.56,3.5,7.56,8.02C118.89,151.9,116.15,155.45,111.33,155.45z"/>
			<path class="st0" d="M152.74,148.06c0.38-1.15,0.58-2.41,0.58-3.76c0-4.63-2.29-8.48-6.51-10.24c-1.59-0.67-3.45-1.04-5.57-1.04
				h-10.9v28.72h7.69v-6.59h2.87l4.01,6.59h8.32l-5.11-8.15C150.4,152.34,151.97,150.43,152.74,148.06z M140.86,149.03h-2.83v-9.51
				h2.83c3.46,0,4.73,1.99,4.73,4.78C145.59,147.08,144.32,149.03,140.86,149.03z"/>
			<polygon class="st0" points="178.28,133.02 178.28,139.48 170.68,139.48 170.68,161.74 162.99,161.74 162.99,139.48 
				155.39,139.48 155.39,133.02 			"/>
			<path class="st0" d="M201.8,153.08c0,3.65-1.58,6.6-5.07,8.07c-1.55,0.65-3.48,1.01-5.82,1.01c-6.16,0-9.8-2.69-11.65-4.99
				c-0.09-0.11-0.18-0.22-0.26-0.33l0.26-0.2l5.31-3.98c1.4,1.73,3.13,3.12,6,3.12c2.28,0,3.63-0.67,3.63-2.28
				c0-1.22-0.93-1.81-2.83-2.45l-3.38-1.14c-1.41-0.47-2.69-1.07-3.75-1.85c-2.09-1.5-3.38-3.67-3.38-6.8c0-4.2,2.58-6.89,6-8
				c1.18-0.39,2.47-0.58,3.79-0.58c2.56,0,4.54,0.46,6.08,1.18c1.53,0.7,2.64,1.64,3.47,2.62l-3.47,3.64l-0.92,0.97
				c-1.19-1.23-2.45-2.07-4.73-2.07c-1.86,0-2.79,0.84-2.79,1.98c0,1.1,0.63,1.65,2.03,2.11l3.8,1.27c0.98,0.32,1.85,0.67,2.61,1.05
				C200.46,147.25,201.8,149.72,201.8,153.08z"/>
			<path class="st0" d="M383.45,153.08c0,5.28-3.29,9.08-10.89,9.08c-1.8,0-3.38-0.23-4.76-0.62c-3.6-0.98-5.87-2.99-7.15-4.7
				l5.57-4.18c0.48,0.59,0.99,1.14,1.58,1.6c1.13,0.92,2.53,1.52,4.42,1.52c2.28,0,3.63-0.67,3.63-2.28c0-1.22-0.93-1.81-2.83-2.45
				l-3.38-1.14c-0.65-0.21-1.26-0.45-1.84-0.73c-3.18-1.49-5.29-3.92-5.29-7.92c0-3.65,1.95-6.16,4.7-7.47
				c1.51-0.74,3.27-1.11,5.09-1.11c5.07,0,7.86,1.82,9.55,3.8l-4.39,4.61c-1.19-1.23-2.46-2.07-4.74-2.07
				c-1.85,0-2.78,0.84-2.78,1.98c0,1.1,0.63,1.65,2.02,2.11l3.8,1.27C381.51,146.28,383.45,149.03,383.45,153.08z"/>
			<polygon class="st0" points="230.65,133.02 230.65,161.74 222.96,161.74 222.96,152.62 213,152.62 213,161.74 205.31,161.74 
				205.31,133.02 213,133.02 213,146.15 222.96,146.15 222.96,133.02 			"/>
			<path class="st0" d="M260.26,133.02v17.61c0,7.73-5.28,11.53-12.46,11.53c-3.41,0-6.38-0.86-8.57-2.59
				c-2.43-1.9-3.89-4.88-3.89-8.94v-17.61h7.69v17.53c0,3.25,1.52,5.11,4.77,5.11s4.77-1.86,4.77-5.11v-17.53H260.26z"/>
			<polygon class="st0" points="286.32,133.02 286.32,139.48 278.72,139.48 278.72,161.74 271.03,161.74 271.03,139.48 
				263.43,139.48 263.43,133.02 			"/>
			<polygon class="st0" points="311.58,133.02 311.58,139.48 303.97,139.48 303.97,161.74 296.29,161.74 296.29,139.48 
				288.69,139.48 288.69,133.02 			"/>
			<polygon class="st0" points="334.93,155.28 334.93,161.74 315.04,161.74 315.04,133.02 322.73,133.02 322.73,155.28 			"/>
			<polygon class="st0" points="359.22,155.28 359.22,161.74 338.48,161.74 338.48,133.02 358.63,133.02 358.63,139.48 
				346.17,139.48 346.17,146.15 356.56,146.15 356.56,152.28 346.17,152.28 346.17,155.28 			"/>
		</g>
		<g>
			<path class="st0" d="M106.87,177.68l10.82-7.04h5.32v8.67h1.82v3.27h-1.82v2.37H119v-2.37h-12.13V177.68z M110.65,179.32H119
				v-5.13h-0.16l-8.18,5.01V179.32z"/>
			<path class="st0" d="M146.6,170.64v10.78h12.87v3.54h-16.88v-14.32H146.6z"/>
			<path class="st0" d="M194.21,179.5h-13.26v1.92h13.79v3.54h-17.8v-14.32h17.76v3.54h-13.75v1.9h13.26V179.5z"/>
			<path class="st0" d="M227.37,184.96h-14.4v-3.54h14.26c0.14,0,0.25-0.04,0.34-0.12c0.09-0.08,0.13-0.19,0.13-0.33v-1.02
				c0-0.14-0.04-0.25-0.13-0.33c-0.09-0.08-0.2-0.12-0.34-0.12h-10.56c-1.38,0-2.44-0.33-3.2-0.98c-0.76-0.66-1.13-1.58-1.13-2.76
				v-1.35c0-1.19,0.38-2.11,1.15-2.77c0.76-0.66,1.83-0.99,3.19-0.99h13.89v3.54h-13.75c-0.14,0-0.25,0.04-0.34,0.12
				s-0.13,0.19-0.13,0.33v1c0,0.14,0.04,0.25,0.13,0.33s0.2,0.12,0.34,0.12h10.56c1.36,0,2.43,0.33,3.19,0.99
				c0.76,0.66,1.15,1.58,1.15,2.75v1.41c0,1.17-0.38,2.09-1.15,2.74C229.8,184.64,228.73,184.96,227.37,184.96z"/>
			<path class="st0" d="M263.97,184.96h-14.4v-3.54h14.26c0.14,0,0.25-0.04,0.34-0.12c0.09-0.08,0.13-0.19,0.13-0.33v-1.02
				c0-0.14-0.04-0.25-0.13-0.33c-0.09-0.08-0.2-0.12-0.34-0.12h-10.56c-1.38,0-2.44-0.33-3.2-0.98c-0.76-0.66-1.13-1.58-1.13-2.76
				v-1.35c0-1.19,0.38-2.11,1.15-2.77c0.76-0.66,1.83-0.99,3.19-0.99h13.89v3.54h-13.75c-0.14,0-0.25,0.04-0.34,0.12
				s-0.13,0.19-0.13,0.33v1c0,0.14,0.04,0.25,0.13,0.33s0.2,0.12,0.34,0.12h10.56c1.36,0,2.43,0.33,3.19,0.99
				c0.76,0.66,1.15,1.58,1.15,2.75v1.41c0,1.17-0.38,2.09-1.15,2.74C266.4,184.64,265.33,184.96,263.97,184.96z"/>
		</g>
		<g>
			<path class="st0" d="M168.05,80.25c0,0-10.19-0.95-12.2-1.38c-2-0.43-2.9-1.38-2.9-1.38l-0.62,3.03
				c-0.26,3.43,1.19,5.59,1.19,5.59s2.05-0.76,5.91-0.76c3.86,0,11.67,1.14,11.67,1.14L168.05,80.25z M162.79,84.3l-1.71-0.24
				l-1.12-2.6l1.71,0.24L162.79,84.3z M162.43,81.75l2.09,0.24l1.12,2.59l-2.09-0.23L162.43,81.75z M157.84,80.07
				c1.82,0.17,7.36,0.66,9.25,0.83l0.09,0.17l1.99,3.82l-1.05-0.16c0,0-1.33-2.92-1.47-3.21c-2.38-0.34-7.49-1.04-9.66-1.37
				c-0.54-0.09-1.08-0.2-1.62-0.35c-0.46-0.13-0.93-0.27-1.33-0.53C154.99,79.79,156.84,79.98,157.84,80.07z M158.13,83.74
				l-1.12-2.59l0.61,0.12l1.12,2.59L158.13,83.74z M159.48,83.93l-1.12-2.59l0.84,0.11l1.12,2.6L159.48,83.93z"/>
			<path class="st0" d="M228.82,71.29l6.14-0.08c0,0,0-1.11-0.73-2.08c-0.73-0.97-2.03-1.08-2.03-1.08l-5.88-0.29l-0.14,4.29h-1.4
				c0,0-4.15-10.34-5.86-13.34c-1.72-3-4.72-3.76-4.72-3.76c1.75,1.22,2.97,3.57,2.97,3.57c-0.89-0.87-1.6-1.69-2.08-1.75
				c-7.09-0.84-23.39-0.78-23.39-0.78s-16.44-0.13-23.29,0.78c-0.31,0.04-1.42,0.84-2.12,1.58c0,0,1.19-2.07,2.91-3.41
				c0,0-3,0.76-4.72,3.76c-1.71,3-5.86,13.34-5.86,13.34h-1.4l-0.14-4.29l-5.88,0.29c0,0-1.3,0.11-2.03,1.08
				c-0.73,0.97-0.73,2.08-0.73,2.08l6.15,0.08c0,0,0.41-0.03,0.41,0.67l-6.56-0.24c0,0,0.33,1.59,1.05,1.89
				c0.72,0.3,6.37,0.49,6.37,0.49l3.09-1.57l2.26-1.19l30.5-0.38l30.5,0.38l2.26,1.19l3.09,1.57c0,0,5.65-0.19,6.37-0.49
				c0.72-0.3,1.05-1.89,1.05-1.89l-6.56,0.24C228.4,71.26,228.82,71.29,228.82,71.29L228.82,71.29z"/>
			<path class="st0" d="M231.06,80.52l-0.62-3.04c0,0-0.91,0.96-2.91,1.39s-12.19,1.38-12.19,1.38l-3.05,6.24
				c0,0,7.81-1.14,11.67-1.14s5.91,0.76,5.91,0.76S231.31,83.95,231.06,80.52z M216.2,81.07l0.09-0.17
				c1.89-0.17,7.43-0.67,9.25-0.83c1-0.09,2.85-0.28,3.8-0.8c-0.4,0.26-0.88,0.4-1.33,0.53c-0.54,0.15-1.08,0.26-1.63,0.36
				c-2.16,0.32-7.27,1.02-9.66,1.36c-0.13,0.29-1.46,3.21-1.46,3.21l-1.05,0.17L216.2,81.07z M217.74,84.58l1.11-2.59l2.1-0.24
				l-1.12,2.59L217.74,84.58z M221.71,81.7l1.71-0.24l-1.12,2.6l-1.71,0.24L221.71,81.7z M223.89,83.93l-0.83,0.12l1.12-2.59
				l0.83-0.12L223.89,83.93z M224.63,83.86l1.12-2.6l0.62-0.12l-1.12,2.6L224.63,83.86z"/>
			<path class="st0" d="M212.11,79.52l-20.42-0.13l-20.42,0.13c-0.9,0.01-1.48,0.95-1.09,1.75c1.21,2.46,3.42,6.8,4.7,8.08
				c1.81,1.81,2.35,1.78,4.48,2.38c2.12,0.6,12.33,2.54,12.33,2.54s10.21-1.94,12.34-2.54s2.67-0.57,4.48-2.38
				c1.27-1.28,3.49-5.62,4.69-8.08C213.59,80.47,213.01,79.53,212.11,79.52z M211.93,81c-0.78,1.41-2.61,4.74-3.26,6.04
				c-0.84,1.66-2.08,3.07-4.55,3.9c-2.48,0.84-12.43,2.46-12.43,2.46s-9.94-1.62-12.42-2.46c-2.48-0.83-3.72-2.24-4.55-3.9
				c-0.65-1.3-2.49-4.63-3.27-6.04c-0.15-0.28,0.05-0.63,0.38-0.63l19.86,0.14l19.87-0.14C211.88,80.37,212.09,80.72,211.93,81z"/>
			<path class="st0" d="M211.29,80.72h-4.01l-1,0.62h-14.59H177.1l-1-0.62h-4.01c-0.14,0-0.23,0.15-0.16,0.27l2.14,3.9
				c0.13,0.24,0.37,0.4,0.64,0.44l16.98,2.04l16.98-2.04c0.27-0.03,0.51-0.2,0.64-0.44l2.14-3.9
				C211.52,80.87,211.43,80.72,211.29,80.72L211.29,80.72z"/>
			<path class="st0" d="M216.8,71.98h4.48c0,0-4.21,3.47-5.76,7.68c0,0,1.01-5.01,2.56-6.77L216.8,71.98z"/>
			<path class="st0" d="M166.46,71.91h-4.48c0,0,4.21,3.47,5.76,7.68c0,0-1.01-5.01-2.56-6.77L166.46,71.91z"/>
			<path class="st0" d="M148.71,70.95h5.85c0,0,0.59,0,0.59,0.96c0,0,0-3.92,1.76-3.92l-5.79,0.27
				C151.13,68.26,148.9,68.81,148.71,70.95L148.71,70.95z"/>
			<path class="st0" d="M234.68,70.95h-5.85c0,0-0.59,0-0.59,0.96c0,0,0-3.92-1.76-3.92l5.79,0.27
				C232.27,68.26,234.49,68.81,234.68,70.95L234.68,70.95z"/>
			<path class="st0" d="M153.19,79.86c0,0-0.57,2.6,0.61,5.59c0,0,1.57-0.54,4.25-0.42C158.05,85.03,153.5,84.26,153.19,79.86
				L153.19,79.86z"/>
			<path class="st0" d="M230.12,80.2c0,0,0.54,2.44-0.57,5.25c0,0-1.47-0.5-3.99-0.4C225.56,85.05,229.83,84.33,230.12,80.2
				L230.12,80.2z"/>
			<path class="st0" d="M169.58,84.17l1.08,2.02c0,0-8.06-1.14-9.95-1.14l8.05,0.48c0.48,0.03,0.87-0.37,0.84-0.84L169.58,84.17z"/>
			<path class="st0" d="M213.83,84.17l-1.08,2.02c0,0,8.06-1.14,9.95-1.14l-8.05,0.48c-0.48,0.03-0.87-0.37-0.84-0.84L213.83,84.17z
				"/>
			<path class="st0" d="M175.95,81.22l0.96,0.57h29.47l1.13-0.7h3.41l-2.15,3.83l-17.04,2.07l-17.14-2.09l-2.15-3.79
				C172.44,81.1,176.03,81.13,175.95,81.22L175.95,81.22z"/>
			<path class="st0" d="M173.01,81.39l1.87,3.31l16.85,2.09l-15.16-2.74c-0.61-0.11-1.17-0.4-1.62-0.82L173.01,81.39z"/>
			<path class="st0" d="M207.73,81.5l-0.96,0.62h-15.44l16.52,0.51c0,0,0,1.47-0.29,1.53c-1.43,0.28-8.82,1.36-8.82,1.36l9.73-0.9
				l1.64-3.19L207.73,81.5z"/>
			<path class="st0" d="M148.75,71.91l0.45,1.06c0,0,0.06,0.47,1.1,0.59c1.04,0.13,5.32,0.32,5.32,0.32S149.58,73.48,148.75,71.91
				L148.75,71.91z"/>
			<path class="st0" d="M234.61,71.91l-0.45,1.06c0,0-0.06,0.47-1.1,0.59c-1.04,0.13-5.32,0.32-5.32,0.32S233.78,73.48,234.61,71.91
				L234.61,71.91z"/>
			<path class="st0" d="M169.22,57.63c0,0-1.3-0.28-2.26,2.04c-0.96,2.32-4.47,10.01-4.47,10.01s-0.34,0.45,0.74,0.45
				c1.07,0,26.92-0.17,26.92-0.17s-25.25-0.14-25.08-1.39C165.23,67.33,169.22,57.63,169.22,57.63L169.22,57.63z"/>
			<path class="st0" d="M191.19,56.53l6.74,0.02c0,0,0.41-0.06,0.59,0.68c0.17,0.7,2.28,10.55,2.76,12.52
				c0.04,0.18-0.09,0.35-0.28,0.35l-3.07,0.02c-0.32,0-0.6-0.23-0.66-0.54C196.81,67.05,194.62,56.53,191.19,56.53L191.19,56.53z"/>
			<path class="st0" d="M199.46,56.66l2.76,13.19c0,0-0.13,0.3,0.64,0.3h1.06c0,0,0.08-0.04,0-0.42
				c-0.08-0.38-2.83-13.05-2.83-13.05L199.46,56.66z"/>
			<path class="st0" d="M205.78,56.79l8.44,0.51c0,0,1.36,0.04,1.95,1.23c0.59,1.19,4.79,11.88,4.79,11.88
				S216.64,57.21,205.78,56.79L205.78,56.79z"/>
			<polygon class="st0" points="193.34,224.1 196.42,233.58 206.39,233.58 198.32,239.45 201.41,248.93 193.34,243.07 
				185.27,248.93 188.35,239.45 180.28,233.58 190.25,233.58 			"/>
			<polygon class="st0" points="165.05,228.44 167.05,234.61 173.54,234.61 168.29,238.42 170.29,244.58 165.05,240.77 
				159.8,244.58 161.81,238.42 156.56,234.61 163.05,234.61 			"/>
			<polygon class="st0" points="221.64,228.44 223.64,234.61 230.13,234.61 224.88,238.42 226.89,244.58 221.64,240.77 
				216.4,244.58 218.4,238.42 213.15,234.61 219.64,234.61 			"/>
		</g>
	</g>
	<g>
		<rect y="0" width="383" height="304"/>
		<path class="st0" d="M191.69,0C117.16,0,55.15,53.65,42.18,124.44h1.09C56.26,54.33,117.88,1.06,191.69,1.06
			c73.82,0,135.43,53.27,148.42,123.38h1.09C328.23,53.65,266.23,0,191.69,0z M341.52,170.32c-9.06,74.62-72.8,132.62-149.83,132.62
			c-77.02,0-140.77-58-149.83-132.62h-1.08C49.83,245.63,113.95,304,191.69,304c77.75,0,141.86-58.37,150.91-133.68H341.52z
			 M342.52,133.02h-1.08c0.57,4.5,0.94,9.07,1.1,13.68c0.06,1.76,0.09,3.53,0.09,5.3c0,3.27-0.1,6.52-0.31,9.74h1.06
			c0.05-0.78,0.1-1.56,0.13-2.35c0.12-2.45,0.18-4.91,0.18-7.39C343.69,145.57,343.29,139.24,342.52,133.02z"/>
		<path class="st0" d="M191.69,35.3c-54.96,0-101.04,37.99-113.42,89.14h0.85c12.39-50.64,58.16-88.33,112.57-88.33
			c54.41,0,100.18,37.69,112.57,88.33h0.86C292.74,73.29,246.65,35.3,191.69,35.3z M306.13,170.32
			c-8.81,55.23-56.77,97.57-114.44,97.57c-57.67,0-105.63-42.34-114.44-97.57h-0.83c8.79,55.75,57.05,98.39,115.27,98.39
			c58.23,0,106.49-42.64,115.28-98.39H306.13z M306.86,133.02h-0.84c0.17,0.96,0.31,1.93,0.44,2.91c0.17,1.17,0.32,2.36,0.44,3.55
			h0.83C307.5,137.31,307.21,135.15,306.86,133.02z M75.8,152c0-6.46,0.53-12.81,1.56-18.98h-0.83c-0.48,2.93-0.85,5.89-1.1,8.89
			c-0.21,2.36-0.34,4.74-0.4,7.14c-0.03,0.98-0.04,1.96-0.04,2.95c0,2.29,0.07,4.56,0.2,6.81c0.05,0.98,0.12,1.96,0.21,2.93h0.81
			c-0.05-0.49-0.08-0.98-0.11-1.48C75.9,157.53,75.8,154.78,75.8,152z"/>
		<text transform="matrix(0.4658 -0.8849 0.8849 0.4658 77.343 99.9953)" class="st0 st1 st2">A</text>
		<text transform="matrix(0.5526 -0.8334 0.8334 0.5526 85.5751 85.3712)" class="st0 st1 st2">I</text>
		<text transform="matrix(0.6321 -0.7749 0.7749 0.6321 90.5951 78.0601)" class="st0 st1 st3">R</text>
		<text transform="matrix(0.7242 -0.6896 0.6896 0.7242 101.0223 65.728)" class="st0 st1 st2">P</text>
		<text transform="matrix(0.8106 -0.5856 0.5856 0.8106 112.4764 55.2177)" class="st0 st1 st2">O</text>
		<text transform="matrix(0.8835 -0.4684 0.4684 0.8835 127.5668 44.7198)" class="st0 st1 st3">R</text>
		<text transform="matrix(0.9343 -0.3565 0.3565 0.9343 141.8097 37.6138)" class="st0 st1 st2">T</text>
		<text transform="matrix(0.9693 -0.246 0.246 0.9693 155.8705 32.5168)" class="st0 st1 st2">S</text>
		<text transform="matrix(0.9924 -0.1229 0.1229 0.9924 170.1236 29.097)" class="st0 st1 st2">H</text>
		<text transform="matrix(0.9999 0.0113 -0.0113 0.9999 187.4154 27.4558)" class="st0 st1 st4">U</text>
		<text transform="matrix(0.9906 0.1368 -0.1368 0.9906 203.8305 27.9445)" class="st0 st1 st2">T</text>
		<text transform="matrix(0.967 0.2547 -0.2547 0.967 218.7328 30.2656)" class="st0 st1 st2">T</text>
		<text transform="matrix(0.9298 0.3681 -0.3681 0.9298 233.251 34.4577)" class="st0 st1 st2">L</text>
		<text transform="matrix(0.8789 0.477 -0.477 0.8789 247.0052 40.1772)" class="st0 st1 st3">E</text>
		<text transform="matrix(0.8159 0.5782 -0.5782 0.8159 260.5112 47.8287)" class="st0 st1 st3">S</text>
		<text transform="matrix(0.7447 0.6674 -0.6674 0.7447 272.329 56.6279)" class="st0 st1 st2">4</text>
		<text transform="matrix(0.6627 0.7489 -0.7489 0.6627 282.7457 66.2843)" class="st0 st1 st2">L</text>
		<text transform="matrix(0.5675 0.8234 -0.8234 0.5675 292.4468 77.6383)" class="st0 st1 st2">E</text>
		<text transform="matrix(0.4643 0.8857 -0.8857 0.4643 300.9082 90.542)" class="st0 st1 st3">S</text>
		<text transform="matrix(0.3572 0.934 -0.934 0.3572 307.5105 103.774)" class="st0 st1 st2">S</text>
		<text transform="matrix(-0.4452 0.8954 -0.8954 -0.4452 307.1596 204.096)" class="st0 st1 st4">A</text>
		<text transform="matrix(-0.5332 0.846 -0.846 -0.5332 299.2386 218.994)" class="st0 st1 st2">I</text>
		<text transform="matrix(-0.6141 0.7892 -0.7892 -0.6141 294.4792 226.3758)" class="st0 st1 st2">R</text>
		<text transform="matrix(-0.708 0.7062 -0.7062 -0.708 284.3595 238.8833)" class="st0 st1 st2">P</text>
		<text transform="matrix(-0.7968 0.6042 -0.6042 -0.7968 273.2269 249.684)" class="st0 st1 st3">O</text>
		<text transform="matrix(-0.8724 0.4888 -0.4888 -0.8724 258.2085 260.5768)" class="st0 st1 st2">R</text>
		<text transform="matrix(-0.9258 0.378 -0.378 -0.9258 244.2297 268.0811)" class="st0 st1 st2">T</text>
		<text transform="matrix(-0.9633 0.2684 -0.2684 -0.9633 230.2968 273.3727)" class="st0 st1 st4">S</text>
		<text transform="matrix(-0.9893 0.1458 -0.1458 -0.9893 216.1217 277.1599)" class="st0 st1 st2">H</text>
		<text transform="matrix(-0.9999 0.0118 -0.0118 -0.9999 198.7997 279.3309)" class="st0 st1 st2">U</text>
		<text transform="matrix(-0.9935 -0.1138 0.1138 -0.9935 182.3952 279.1154)" class="st0 st1 st2">T</text>
		<text transform="matrix(-0.9727 -0.2322 0.2322 -0.9727 167.4783 277.0618)" class="st0 st1 st2">T</text>
		<text transform="matrix(-0.938 -0.3465 0.3465 -0.938 152.8144 273.3516)" class="st0 st1 st3">L</text>
		<text transform="matrix(-0.8897 -0.4565 0.4565 -0.8897 138.9435 267.9315)" class="st0 st1 st2">E</text>
		<text transform="matrix(-0.8293 -0.5588 0.5588 -0.8293 125.2888 260.5727)" class="st0 st1 st4">S</text>
		<text transform="matrix(-0.76 -0.65 0.65 -0.76 113.2857 252.0739)" class="st0 st1 st2">4</text>
		<text transform="matrix(-0.6798 -0.7334 0.7334 -0.6798 102.6467 242.6011)" class="st0 st1 st4">L</text>
		<text transform="matrix(-0.5864 -0.81 0.81 -0.5864 92.7377 231.507)" class="st0 st1 st2">E</text>
		<text transform="matrix(-0.4847 -0.8747 0.8747 -0.4847 83.9162 218.7241)" class="st0 st1 st3">S</text>
		<text transform="matrix(-0.3788 -0.9255 0.9255 -0.3788 77.0318 205.733)" class="st0 st1 st2">S</text>
		<g>
			<path class="st0" d="M136.71,110.51h-3.51v2.1h4.14v1.03h-5.26v-7.15h5.26v1.03h-4.14v1.97h3.51V110.51z"/>
			<path class="st0" d="M139.27,113.64h-1.25l2.13-2.74l-2.04-2.66h1.28l1.53,2.1l0.01,0l1.54-2.09h1.25l-2.05,2.66l2.14,2.74h-1.28
				l-1.62-2.2l-0.02,0L139.27,113.64z"/>
			<path class="st0" d="M149.79,111.32h-4.7v0.02c0.08,0.45,0.28,0.81,0.6,1.08c0.32,0.27,0.72,0.4,1.21,0.4
				c0.7,0,1.2-0.23,1.51-0.69h1.15c-0.21,0.51-0.55,0.91-1.02,1.21c-0.47,0.29-1.01,0.44-1.63,0.44c-0.85,0-1.55-0.27-2.09-0.8
				c-0.54-0.54-0.81-1.21-0.81-2.04s0.27-1.5,0.81-2.04c0.54-0.54,1.24-0.8,2.09-0.8c0.85,0,1.54,0.27,2.08,0.8
				c0.54,0.54,0.81,1.21,0.81,2.04V111.32z M148.06,109.41c-0.32-0.24-0.71-0.35-1.16-0.35s-0.84,0.12-1.15,0.35
				s-0.53,0.56-0.63,0.96v0.02h3.57v-0.02C148.6,109.97,148.38,109.65,148.06,109.41z"/>
			<path class="st0" d="M156.12,110.2h-1.05c-0.13-0.35-0.35-0.63-0.66-0.83c-0.31-0.2-0.67-0.31-1.08-0.31
				c-0.55,0-1,0.17-1.34,0.52c-0.34,0.35-0.51,0.8-0.51,1.35s0.17,1.01,0.51,1.35c0.34,0.35,0.79,0.52,1.34,0.52
				c0.42,0,0.78-0.1,1.08-0.31c0.31-0.2,0.52-0.48,0.66-0.83h1.05c-0.15,0.63-0.47,1.13-0.97,1.52c-0.5,0.39-1.11,0.58-1.81,0.58
				c-0.85,0-1.55-0.27-2.09-0.8c-0.54-0.54-0.81-1.21-0.81-2.04s0.27-1.5,0.81-2.04c0.54-0.54,1.24-0.8,2.09-0.8
				c0.71,0,1.31,0.19,1.81,0.58C155.65,109.06,155.97,109.57,156.12,110.2z"/>
			<path class="st0" d="M161.28,111.06v-2.82h1.04v2.82c0,0.87-0.24,1.55-0.72,2.02c-0.48,0.47-1.13,0.71-1.95,0.71
				s-1.46-0.23-1.94-0.7c-0.48-0.47-0.72-1.14-0.72-2.02v-2.82h1.04v2.82c0,0.58,0.15,1.01,0.44,1.31s0.69,0.45,1.19,0.45
				c0.5,0,0.9-0.15,1.19-0.45C161.13,112.07,161.28,111.63,161.28,111.06z"/>
			<path class="st0" d="M167.71,111.47v0.12c0,0.71-0.19,1.26-0.58,1.63c-0.39,0.37-0.92,0.56-1.58,0.56
				c-0.66,0-1.19-0.19-1.58-0.56c-0.39-0.37-0.58-0.91-0.58-1.63v-5.2h1.04v1.85h2.97v0.95h-2.97v2.4c0,0.42,0.1,0.72,0.3,0.92
				c0.2,0.2,0.48,0.3,0.83,0.3c0.76,0,1.14-0.41,1.14-1.22v-0.12H167.71z"/>
			<path class="st0" d="M169.34,107.47c-0.2,0-0.37-0.07-0.51-0.21s-0.21-0.31-0.21-0.52c0-0.2,0.07-0.37,0.21-0.51
				s0.31-0.21,0.51-0.21c0.2,0,0.38,0.07,0.51,0.21s0.21,0.31,0.21,0.51c0,0.2-0.07,0.38-0.21,0.52S169.54,107.47,169.34,107.47z
				 M169.87,113.64h-1.04v-5.4h1.04V113.64z"/>
			<path class="st0" d="M174.3,113.64h-1.26l-2.25-5.4h1.14l1.75,4.43h0.01l1.75-4.43h1.1L174.3,113.64z"/>
			<path class="st0" d="M182.63,111.32h-4.7v0.02c0.08,0.45,0.28,0.81,0.6,1.08c0.32,0.27,0.72,0.4,1.21,0.4
				c0.7,0,1.2-0.23,1.51-0.69h1.15c-0.21,0.51-0.55,0.91-1.02,1.21c-0.47,0.29-1.01,0.44-1.63,0.44c-0.85,0-1.55-0.27-2.09-0.8
				c-0.54-0.54-0.81-1.21-0.81-2.04s0.27-1.5,0.81-2.04c0.54-0.54,1.24-0.8,2.09-0.8c0.85,0,1.54,0.27,2.08,0.8
				c0.54,0.54,0.81,1.21,0.81,2.04V111.32z M180.9,109.41c-0.32-0.24-0.71-0.35-1.16-0.35s-0.84,0.12-1.15,0.35
				s-0.53,0.56-0.63,0.96v0.02h3.57v-0.02C181.43,109.97,181.22,109.65,180.9,109.41z"/>
			<path class="st0" d="M191.96,110.98v2.66h-0.95v-1.13h-0.02c-0.17,0.39-0.43,0.69-0.8,0.92s-0.8,0.34-1.28,0.34
				c-0.74,0-1.38-0.25-1.92-0.77c-0.54-0.51-0.81-1.2-0.81-2.08c0-0.82,0.27-1.5,0.81-2.04c0.54-0.54,1.24-0.8,2.09-0.8
				s1.55,0.27,2.08,0.8C191.69,109.43,191.96,110.12,191.96,110.98z M187.73,112.29c0.34,0.35,0.79,0.52,1.34,0.52s1-0.17,1.34-0.52
				c0.34-0.35,0.51-0.8,0.51-1.35s-0.17-1.01-0.51-1.35c-0.34-0.35-0.79-0.52-1.34-0.52s-1,0.17-1.34,0.52
				c-0.34,0.35-0.51,0.8-0.51,1.35S187.39,111.94,187.73,112.29z"/>
			<path class="st0" d="M198.37,113.64h-1.04v-2.81c0-0.58-0.15-1.01-0.44-1.32c-0.29-0.3-0.69-0.45-1.19-0.45
				c-0.5,0-0.9,0.15-1.19,0.45c-0.29,0.3-0.44,0.74-0.44,1.32v2.81h-1.04v-2.81c0-0.88,0.24-1.56,0.72-2.03
				c0.48-0.47,1.13-0.71,1.95-0.71c0.82,0,1.46,0.23,1.95,0.7c0.48,0.47,0.72,1.14,0.72,2.03V113.64z"/>
			<path class="st0" d="M205.01,105.88v5.02c0,0.87-0.27,1.56-0.8,2.09c-0.53,0.53-1.23,0.79-2.09,0.79c-0.85,0-1.55-0.27-2.09-0.8
				s-0.81-1.21-0.81-2.04c0-0.87,0.27-1.57,0.8-2.08s1.17-0.77,1.92-0.77c0.45,0,0.85,0.09,1.2,0.28s0.62,0.45,0.81,0.78h0.02v-3.28
				H205.01z M202.12,112.82c0.55,0,0.99-0.18,1.33-0.53c0.34-0.35,0.51-0.8,0.51-1.35s-0.17-1-0.51-1.35
				c-0.34-0.35-0.79-0.53-1.33-0.53c-0.55,0-1,0.17-1.34,0.52c-0.34,0.35-0.51,0.8-0.51,1.35s0.17,1.01,0.51,1.35
				C201.12,112.64,201.57,112.82,202.12,112.82z"/>
			<path class="st0" d="M213.8,110.51h-3.51v2.1h4.14v1.03h-5.26v-7.15h5.26v1.03h-4.14v1.97h3.51V110.51z"/>
			<path class="st0" d="M216.36,113.64h-1.25l2.13-2.74l-2.04-2.66h1.28l1.53,2.1l0.01,0l1.54-2.09h1.25l-2.05,2.66l2.14,2.74h-1.28
				l-1.62-2.2l-0.02,0L216.36,113.64z"/>
			<path class="st0" d="M226.79,110.2h-1.05c-0.13-0.35-0.35-0.63-0.66-0.83c-0.31-0.2-0.67-0.31-1.08-0.31
				c-0.55,0-1,0.17-1.34,0.52c-0.34,0.35-0.51,0.8-0.51,1.35s0.17,1.01,0.51,1.35c0.34,0.35,0.79,0.52,1.34,0.52
				c0.42,0,0.78-0.1,1.08-0.31s0.52-0.48,0.66-0.83h1.05c-0.15,0.63-0.47,1.13-0.97,1.52c-0.5,0.39-1.11,0.58-1.81,0.58
				c-0.85,0-1.55-0.27-2.09-0.8s-0.81-1.21-0.81-2.04s0.27-1.5,0.81-2.04c0.54-0.54,1.24-0.8,2.09-0.8c0.71,0,1.31,0.19,1.81,0.58
				C226.32,109.06,226.64,109.57,226.79,110.2z"/>
			<path class="st0" d="M228.89,113.64h-1.04v-7.76h1.04V113.64z"/>
			<path class="st0" d="M234.44,111.06v-2.82h1.04v2.82c0,0.87-0.24,1.55-0.72,2.02c-0.48,0.47-1.13,0.71-1.95,0.71
				c-0.82,0-1.46-0.23-1.95-0.7c-0.48-0.47-0.72-1.14-0.72-2.02v-2.82h1.04v2.82c0,0.58,0.15,1.01,0.44,1.31s0.69,0.45,1.19,0.45
				c0.5,0,0.9-0.15,1.19-0.45C234.29,112.07,234.44,111.63,234.44,111.06z"/>
			<path class="st0" d="M240.69,109.76h-1.03c-0.02-0.21-0.12-0.38-0.31-0.52s-0.44-0.2-0.75-0.2c-0.34,0-0.61,0.07-0.8,0.21
				c-0.19,0.14-0.29,0.32-0.29,0.55c0,0.17,0.08,0.3,0.25,0.38c0.17,0.09,0.37,0.15,0.62,0.19c0.25,0.04,0.51,0.08,0.8,0.12
				c0.29,0.04,0.55,0.1,0.8,0.19s0.45,0.24,0.61,0.47c0.16,0.23,0.25,0.53,0.25,0.9c0,0.51-0.21,0.93-0.62,1.25
				c-0.41,0.32-0.95,0.49-1.62,0.49c-0.66,0-1.2-0.16-1.61-0.48s-0.62-0.73-0.63-1.23h1.05c0.01,0.23,0.12,0.42,0.33,0.56
				c0.2,0.14,0.49,0.21,0.85,0.21c0.39,0,0.68-0.07,0.89-0.22c0.21-0.15,0.31-0.34,0.31-0.58c0-0.17-0.08-0.31-0.25-0.4
				c-0.16-0.09-0.37-0.16-0.61-0.2c-0.25-0.04-0.51-0.07-0.8-0.12c-0.29-0.04-0.55-0.1-0.8-0.18c-0.25-0.08-0.45-0.23-0.62-0.46
				c-0.16-0.23-0.25-0.51-0.25-0.86c0-0.5,0.19-0.92,0.58-1.24s0.9-0.49,1.54-0.49c0.63,0,1.13,0.16,1.51,0.47
				C240.47,108.88,240.67,109.28,240.69,109.76z"/>
			<path class="st0" d="M242.41,107.47c-0.2,0-0.37-0.07-0.51-0.21c-0.14-0.14-0.21-0.31-0.21-0.52c0-0.2,0.07-0.37,0.21-0.51
				c0.14-0.14,0.31-0.21,0.51-0.21c0.2,0,0.38,0.07,0.51,0.21c0.14,0.14,0.21,0.31,0.21,0.51c0,0.2-0.07,0.38-0.21,0.52
				C242.79,107.4,242.62,107.47,242.41,107.47z M242.94,113.64h-1.04v-5.4h1.04V113.64z"/>
			<path class="st0" d="M247.37,113.64h-1.26l-2.25-5.4H245l1.75,4.43h0.01l1.75-4.43h1.1L247.37,113.64z"/>
			<path class="st0" d="M255.7,111.32H251v0.02c0.08,0.45,0.28,0.81,0.6,1.08c0.32,0.27,0.72,0.4,1.21,0.4c0.7,0,1.2-0.23,1.51-0.69
				h1.15c-0.21,0.51-0.55,0.91-1.02,1.21c-0.47,0.29-1.01,0.44-1.63,0.44c-0.85,0-1.55-0.27-2.09-0.8s-0.81-1.21-0.81-2.04
				s0.27-1.5,0.81-2.04c0.54-0.54,1.24-0.8,2.09-0.8c0.84,0,1.54,0.27,2.08,0.8c0.54,0.54,0.81,1.21,0.81,2.04V111.32z
				 M253.97,109.41c-0.32-0.24-0.71-0.35-1.16-0.35s-0.84,0.12-1.15,0.35c-0.32,0.24-0.53,0.56-0.63,0.96v0.02h3.57v-0.02
				C254.51,109.97,254.29,109.65,253.97,109.41z"/>
		</g>
		<g>
			<path class="st0" d="M135.97,211.42h-4.57v-0.9l2.66-2.49c0.62-0.58,0.93-1.14,0.93-1.66c0-0.42-0.11-0.75-0.33-1.01
				s-0.53-0.38-0.93-0.38s-0.71,0.13-0.94,0.4c-0.23,0.27-0.34,0.62-0.34,1.07v0.1h-1.03v-0.1c0-0.74,0.21-1.33,0.62-1.78
				c0.42-0.45,0.98-0.67,1.7-0.67c0.7,0,1.27,0.22,1.69,0.67s0.63,1.01,0.63,1.7c0,0.45-0.1,0.85-0.3,1.19
				c-0.2,0.34-0.52,0.7-0.94,1.09l-1.96,1.8l0.01,0.03h3.1V211.42z"/>
			<path class="st0" d="M141.46,211.42h-1.06v-1.59h-3.52v-0.9l3.52-4.78h1.06v4.74h0.78v0.95h-0.78V211.42z M140.4,205.63l-0.02,0
				l-2.34,3.23v0.02h2.36V205.63z"/>
			<path class="st0" d="M145.85,206.76c-0.5,0-0.91,0.16-1.21,0.47s-0.45,0.76-0.45,1.33v2.86h-1.06v-7.9h1.06v3.26h0.02
				c0.38-0.67,0.98-1,1.81-1c0.73,0,1.34,0.24,1.82,0.71s0.72,1.16,0.72,2.07v2.86h-1.06v-2.86c0-0.59-0.15-1.03-0.44-1.34
				C146.77,206.91,146.36,206.76,145.85,206.76z"/>
			<path class="st0" d="M154.38,208.25h-1.05v-0.07c0-0.95-0.44-1.42-1.31-1.42s-1.31,0.47-1.31,1.42v3.24h-1.06v-3.24
				c0-0.79,0.21-1.38,0.64-1.79c0.43-0.41,1-0.61,1.73-0.61c0.73,0,1.3,0.2,1.72,0.61s0.63,1.01,0.63,1.8V208.25z"/>
			<path class="st0" d="M159.52,211.42h-1.06v-7.9h1.06V211.42z"/>
			<path class="st0" d="M161.52,205.14c-0.2,0-0.37-0.07-0.52-0.22s-0.22-0.32-0.22-0.53c0-0.2,0.07-0.37,0.22-0.52
				s0.32-0.22,0.52-0.22c0.21,0,0.38,0.07,0.52,0.22s0.21,0.32,0.21,0.52c0,0.21-0.07,0.38-0.21,0.53S161.73,205.14,161.52,205.14z
				 M162.06,211.42H161v-5.5h1.06V211.42z"/>
			<path class="st0" d="M168.08,211.42h-1.06v-3.18c0-0.48-0.12-0.85-0.36-1.1c-0.24-0.25-0.56-0.38-0.95-0.38
				c-0.4,0-0.72,0.12-0.96,0.37c-0.24,0.25-0.36,0.62-0.36,1.11v3.18h-1.06v-3.18c0-0.81,0.21-1.42,0.63-1.84
				c0.42-0.42,0.97-0.62,1.64-0.62c0.89,0,1.53,0.36,1.92,1.07h0.02c0.39-0.71,1.03-1.07,1.92-1.07c0.67,0,1.22,0.21,1.64,0.62
				c0.42,0.42,0.63,1.03,0.63,1.84v3.18h-1.06v-3.18c0-0.49-0.12-0.86-0.36-1.11c-0.24-0.25-0.56-0.37-0.96-0.37
				c-0.39,0-0.71,0.13-0.95,0.38s-0.36,0.62-0.36,1.1V211.42z"/>
			<path class="st0" d="M177.71,206.6c0.55,0.54,0.83,1.24,0.83,2.07c0,0.84-0.28,1.53-0.83,2.08c-0.55,0.54-1.26,0.82-2.13,0.82
				s-1.58-0.27-2.13-0.82c-0.55-0.54-0.83-1.24-0.83-2.08c0-0.84,0.28-1.53,0.83-2.07c0.55-0.55,1.26-0.82,2.13-0.82
				S177.15,206.05,177.71,206.6z M174.21,210.05c0.35,0.36,0.8,0.53,1.37,0.53s1.02-0.18,1.37-0.53c0.35-0.36,0.52-0.82,0.52-1.38
				s-0.17-1.02-0.52-1.38c-0.35-0.36-0.81-0.53-1.37-0.53s-1.02,0.18-1.37,0.53c-0.35,0.36-0.52,0.82-0.52,1.38
				S173.86,209.69,174.21,210.05z"/>
			<path class="st0" d="M183.77,208.79v-2.87h1.06v2.87c0,0.89-0.24,1.57-0.73,2.05c-0.49,0.48-1.15,0.72-1.98,0.72
				c-0.83,0-1.49-0.24-1.98-0.71c-0.49-0.47-0.73-1.16-0.73-2.06v-2.87h1.06v2.87c0,0.59,0.15,1.03,0.44,1.33
				c0.3,0.3,0.7,0.46,1.21,0.46s0.92-0.15,1.21-0.46C183.63,209.82,183.77,209.38,183.77,208.79z"/>
			<path class="st0" d="M190.14,207.47h-1.05c-0.01-0.21-0.12-0.39-0.31-0.53c-0.19-0.14-0.45-0.21-0.77-0.21
				c-0.35,0-0.62,0.07-0.82,0.21c-0.2,0.14-0.29,0.33-0.29,0.56c0,0.17,0.08,0.3,0.25,0.39c0.17,0.09,0.38,0.15,0.63,0.19
				c0.25,0.04,0.52,0.08,0.81,0.12s0.56,0.11,0.81,0.19c0.25,0.08,0.46,0.24,0.63,0.48s0.25,0.54,0.25,0.92
				c0,0.52-0.21,0.94-0.63,1.27c-0.42,0.33-0.97,0.5-1.65,0.5c-0.67,0-1.22-0.16-1.64-0.48c-0.42-0.32-0.63-0.74-0.65-1.25h1.07
				c0.02,0.24,0.13,0.43,0.33,0.57s0.5,0.21,0.87,0.21c0.39,0,0.7-0.07,0.91-0.22c0.21-0.15,0.32-0.34,0.32-0.59
				c0-0.18-0.08-0.31-0.25-0.41c-0.17-0.1-0.38-0.16-0.63-0.2c-0.25-0.04-0.52-0.08-0.81-0.12c-0.29-0.04-0.56-0.11-0.81-0.19
				c-0.25-0.08-0.46-0.24-0.63-0.47c-0.17-0.23-0.25-0.52-0.25-0.88c0-0.51,0.2-0.93,0.6-1.26c0.4-0.33,0.92-0.5,1.56-0.5
				c0.64,0,1.15,0.16,1.54,0.48C189.92,206.58,190.12,206.98,190.14,207.47z"/>
			<path class="st0" d="M191.9,205.14c-0.2,0-0.37-0.07-0.52-0.22s-0.22-0.32-0.22-0.53c0-0.2,0.07-0.37,0.22-0.52
				s0.32-0.22,0.52-0.22c0.21,0,0.38,0.07,0.52,0.22s0.21,0.32,0.21,0.52c0,0.21-0.07,0.38-0.21,0.53S192.1,205.14,191.9,205.14z
				 M192.43,211.42h-1.06v-5.5h1.06V211.42z"/>
			<path class="st0" d="M199.14,211.42h-1.06v-2.86c0-0.59-0.15-1.03-0.44-1.34c-0.3-0.31-0.7-0.46-1.21-0.46s-0.92,0.15-1.21,0.46
				s-0.45,0.75-0.45,1.34v2.86h-1.06v-2.86c0-0.9,0.25-1.58,0.73-2.06s1.15-0.72,1.98-0.72c0.83,0,1.49,0.24,1.98,0.71
				c0.49,0.48,0.73,1.17,0.73,2.07V211.42z"/>
			<path class="st0" d="M205.9,209.06h-4.78v0.02c0.08,0.46,0.29,0.83,0.61,1.1s0.74,0.41,1.24,0.41c0.71,0,1.22-0.23,1.54-0.7h1.17
				c-0.22,0.52-0.56,0.93-1.04,1.23c-0.48,0.3-1.03,0.45-1.66,0.45c-0.87,0-1.58-0.27-2.13-0.82s-0.83-1.24-0.83-2.08
				c0-0.84,0.28-1.53,0.83-2.07c0.55-0.55,1.26-0.82,2.13-0.82c0.86,0,1.56,0.27,2.11,0.82c0.55,0.54,0.82,1.24,0.82,2.07V209.06z
				 M204.14,207.12c-0.33-0.24-0.72-0.36-1.18-0.36c-0.46,0-0.85,0.12-1.17,0.36c-0.32,0.24-0.54,0.57-0.64,0.97v0.02h3.64v-0.02
				C204.68,207.68,204.47,207.36,204.14,207.12z"/>
			<path class="st0" d="M213.94,207.47h-1.05c-0.01-0.21-0.12-0.39-0.31-0.53c-0.19-0.14-0.45-0.21-0.77-0.21
				c-0.35,0-0.62,0.07-0.82,0.21c-0.2,0.14-0.29,0.33-0.29,0.56c0,0.17,0.08,0.3,0.25,0.39c0.17,0.09,0.38,0.15,0.63,0.19
				c0.25,0.04,0.52,0.08,0.81,0.12s0.56,0.11,0.81,0.19s0.46,0.24,0.63,0.48s0.25,0.54,0.25,0.92c0,0.52-0.21,0.94-0.63,1.27
				s-0.97,0.5-1.65,0.5c-0.67,0-1.22-0.16-1.63-0.48c-0.42-0.32-0.63-0.74-0.65-1.25h1.07c0.01,0.24,0.13,0.43,0.33,0.57
				c0.21,0.14,0.5,0.21,0.87,0.21c0.39,0,0.7-0.07,0.91-0.22c0.21-0.15,0.32-0.34,0.32-0.59c0-0.18-0.08-0.31-0.25-0.41
				c-0.17-0.1-0.38-0.16-0.63-0.2c-0.25-0.04-0.52-0.08-0.81-0.12c-0.29-0.04-0.56-0.11-0.81-0.19c-0.25-0.08-0.46-0.24-0.63-0.47
				c-0.17-0.23-0.25-0.52-0.25-0.88c0-0.51,0.2-0.93,0.6-1.26c0.4-0.33,0.92-0.5,1.56-0.5c0.64,0,1.15,0.16,1.54,0.48
				C213.73,206.58,213.93,206.98,213.94,207.47z"/>
			<path class="st0" d="M220.65,209.06h-4.78v0.02c0.08,0.46,0.29,0.83,0.61,1.1s0.74,0.41,1.24,0.41c0.71,0,1.22-0.23,1.54-0.7
				h1.17c-0.22,0.52-0.56,0.93-1.04,1.23c-0.48,0.3-1.03,0.45-1.66,0.45c-0.87,0-1.58-0.27-2.13-0.82s-0.83-1.24-0.83-2.08
				c0-0.84,0.28-1.53,0.83-2.07c0.55-0.55,1.26-0.82,2.13-0.82c0.86,0,1.56,0.27,2.11,0.82c0.55,0.54,0.82,1.24,0.82,2.07V209.06z
				 M218.89,207.12c-0.33-0.24-0.72-0.36-1.18-0.36c-0.46,0-0.85,0.12-1.17,0.36c-0.32,0.24-0.54,0.57-0.64,0.97v0.02h3.64v-0.02
				C219.44,207.68,219.22,207.36,218.89,207.12z"/>
			<path class="st0" d="M226.25,208.25h-1.05v-0.07c0-0.95-0.44-1.42-1.31-1.42c-0.88,0-1.31,0.47-1.31,1.42v3.24h-1.06v-3.24
				c0-0.79,0.21-1.38,0.64-1.79s1-0.61,1.73-0.61c0.73,0,1.3,0.2,1.72,0.61c0.42,0.41,0.63,1.01,0.63,1.8V208.25z"/>
			<path class="st0" d="M230.26,211.42h-1.28l-2.29-5.5h1.16l1.79,4.51h0.01l1.79-4.51h1.12L230.26,211.42z"/>
			<path class="st0" d="M234.04,205.14c-0.2,0-0.37-0.07-0.52-0.22s-0.22-0.32-0.22-0.53c0-0.2,0.07-0.37,0.22-0.52
				s0.32-0.22,0.52-0.22c0.21,0,0.38,0.07,0.52,0.22s0.21,0.32,0.21,0.52c0,0.21-0.07,0.38-0.21,0.53S234.24,205.14,234.04,205.14z
				 M234.57,211.42h-1.06v-5.5h1.06V211.42z"/>
			<path class="st0" d="M241.42,207.92h-1.07c-0.13-0.36-0.36-0.64-0.67-0.85c-0.31-0.21-0.68-0.31-1.1-0.31
				c-0.56,0-1.02,0.18-1.37,0.53c-0.35,0.36-0.52,0.82-0.52,1.38s0.17,1.02,0.52,1.38c0.35,0.36,0.8,0.53,1.37,0.53
				c0.42,0,0.79-0.1,1.1-0.31c0.31-0.21,0.53-0.49,0.67-0.85h1.07c-0.15,0.64-0.48,1.15-0.99,1.55c-0.51,0.39-1.13,0.59-1.85,0.59
				c-0.87,0-1.58-0.27-2.13-0.82s-0.83-1.24-0.83-2.08c0-0.84,0.28-1.53,0.83-2.07c0.55-0.55,1.26-0.82,2.13-0.82
				c0.72,0,1.33,0.2,1.85,0.59C240.94,206.76,241.27,207.28,241.42,207.92z"/>
			<path class="st0" d="M247.97,209.06h-4.78v0.02c0.08,0.46,0.29,0.83,0.61,1.1s0.74,0.41,1.24,0.41c0.71,0,1.22-0.23,1.54-0.7
				h1.17c-0.22,0.52-0.56,0.93-1.04,1.23c-0.48,0.3-1.03,0.45-1.66,0.45c-0.87,0-1.58-0.27-2.13-0.82s-0.83-1.24-0.83-2.08
				c0-0.84,0.28-1.53,0.83-2.07c0.55-0.55,1.26-0.82,2.13-0.82c0.86,0,1.56,0.27,2.11,0.82c0.55,0.54,0.82,1.24,0.82,2.07V209.06z
				 M246.22,207.12c-0.33-0.24-0.72-0.36-1.18-0.36c-0.46,0-0.85,0.12-1.17,0.36c-0.32,0.24-0.54,0.57-0.64,0.97v0.02h3.64v-0.02
				C246.76,207.68,246.54,207.36,246.22,207.12z"/>
			<path class="st0" d="M253.06,207.47h-1.05c-0.01-0.21-0.12-0.39-0.31-0.53c-0.19-0.14-0.45-0.21-0.77-0.21
				c-0.35,0-0.62,0.07-0.82,0.21c-0.2,0.14-0.29,0.33-0.29,0.56c0,0.17,0.08,0.3,0.25,0.39c0.17,0.09,0.38,0.15,0.63,0.19
				c0.25,0.04,0.52,0.08,0.81,0.12s0.56,0.11,0.81,0.19s0.46,0.24,0.63,0.48s0.25,0.54,0.25,0.92c0,0.52-0.21,0.94-0.63,1.27
				s-0.97,0.5-1.65,0.5c-0.67,0-1.22-0.16-1.63-0.48c-0.42-0.32-0.63-0.74-0.65-1.25h1.07c0.01,0.24,0.13,0.43,0.33,0.57
				c0.21,0.14,0.5,0.21,0.87,0.21c0.39,0,0.7-0.07,0.91-0.22c0.21-0.15,0.32-0.34,0.32-0.59c0-0.18-0.08-0.31-0.25-0.41
				c-0.17-0.1-0.38-0.16-0.63-0.2c-0.25-0.04-0.52-0.08-0.81-0.12c-0.29-0.04-0.56-0.11-0.81-0.19c-0.25-0.08-0.46-0.24-0.63-0.47
				c-0.17-0.23-0.25-0.52-0.25-0.88c0-0.51,0.2-0.93,0.6-1.26c0.4-0.33,0.92-0.5,1.56-0.5c0.64,0,1.15,0.16,1.54,0.48
				C252.84,206.58,253.04,206.98,253.06,207.47z"/>
		</g>
		<g>
			<path class="st0" d="M90.25,136.12c2.16,2.03,3.3,4.91,3.3,8.18c0,4.16-1.85,7.68-5.29,9.61c-0.6-2.06-0.92-4.25-0.92-6.53
				C87.34,143.27,88.39,139.44,90.25,136.12z"/>
			<path class="st0" d="M121.76,136.45c-2.78-2.39-6.47-3.77-10.43-3.77c-4.04,0-7.83,1.45-10.63,3.94
				c-2.92,2.6-4.78,6.34-4.78,10.76c0,3.23,0.99,6.11,2.67,8.44c2.82,3.91,7.56,6.3,12.74,6.3c3.96,0,7.65-1.39,10.43-3.79
				c3.04-2.61,4.99-6.43,4.99-10.95C126.75,142.86,124.8,139.05,121.76,136.45z M111.33,155.45c-4.81,0-7.56-3.55-7.56-8.07
				c0-4.52,2.75-8.02,7.56-8.02c4.82,0,7.56,3.5,7.56,8.02C118.89,151.9,116.15,155.45,111.33,155.45z"/>
			<path class="st0" d="M135.33,147.38c0,5.46-1.84,10.43-4.97,14.36h-0.02v-28.72C133.48,136.95,135.33,141.92,135.33,147.38z"/>
			<path class="st0" d="M22.59,149.68l-8.19-17.17c-0.12-0.29-0.38-0.29-0.5,0l-13.98,29.23h7.51l1.06-2.45H19.3l1.1,2.45h7.94
				L22.59,149.68z M10.94,153.54l2.87-6.67l2.96,6.67H10.94z"/>
			<polygon class="st0" points="35.43,156.68 37.84,161.74 31.17,161.74 31.17,147.75 			"/>
			<path class="st0" d="M41.93,170.32h-0.07c-0.01-0.06-0.02-0.13-0.02-0.19L41.93,170.32z"/>
			<polygon class="st0" points="22.59,149.68 28.34,161.74 22.59,161.74 			"/>
			<rect x="31.17" y="133.02" class="st0" width="7.69" height="28.72"/>
			<path class="st0" d="M41.84,170.13l0.09,0.19h-0.07C41.85,170.26,41.84,170.19,41.84,170.13z"/>
			<rect x="44.01" y="133.02" class="st0" width="3.43" height="28.72"/>
			<path class="st0" d="M41.84,170.13l0.09,0.19h-0.07C41.85,170.26,41.84,170.19,41.84,170.13z"/>
			<rect x="35.43" y="133.02" class="st0" width="3.43" height="28.72"/>
			<path class="st0" d="M62,153.46c3.25-1.87,4.98-5.11,4.98-9.16c0-4.04-1.74-7.48-4.98-9.46c-1.87-1.16-4.26-1.82-7.09-1.82h-10.9
				v28.72h7.69v-6.59h2.87l4.01,6.59h8.32l-4.9-7.82V153.46z M54.53,149.03H51.7v-9.51h2.83c3.46,0,4.73,1.99,4.73,4.78
				C59.26,147.08,57.99,149.03,54.53,149.03z"/>
			<path class="st0" d="M77.03,161.74h-6.45v-28.72h1.64c1.73,2.54,2.85,5.55,3.21,8.89c0.09,0.78,0.13,1.58,0.13,2.39
				c0,1.65-0.18,3.24-0.53,4.75c-0.47,2.08-1.27,4.01-2.36,5.74l2.52,4.02l0.91,1.45L77.03,161.74z"/>
			<path class="st0" d="M66.98,144.3c0,4.05-1.73,7.29-4.98,9.16v-18.62C65.24,136.82,66.98,140.26,66.98,144.3z"/>
			<polygon class="st0" points="62,153.92 66.9,161.74 62,161.74 			"/>
			<path class="st0" d="M90.25,136.12c-2.04-1.94-5.01-3.1-8.78-3.1H70.58v28.72h7.68v-6.21h3.21c2.69,0,4.96-0.58,6.79-1.62
				c3.44-1.93,5.29-5.45,5.29-9.61C93.55,141.03,92.41,138.15,90.25,136.12z M81.09,149.03h-2.83v-9.51h2.83
				c3.47,0,4.73,1.99,4.73,4.78C85.82,147.08,84.56,149.03,81.09,149.03z M100.7,136.62c-2.92,2.6-4.78,6.34-4.78,10.76
				c0,3.23,0.99,6.11,2.67,8.44c2.26-3.18,3.54-7.12,3.54-11.52C102.13,141.53,101.63,138.95,100.7,136.62z"/>
			<path class="st0" d="M121.76,158.33v-21.88c3.04,2.6,4.99,6.41,4.99,10.93C126.75,151.9,124.8,155.72,121.76,158.33z"/>
			<path class="st0" d="M152.74,148.06c0.38-1.15,0.58-2.41,0.58-3.76c0-4.63-2.29-8.48-6.51-10.24c-1.59-0.67-3.45-1.04-5.57-1.04
				h-10.9v28.72h7.69v-6.59h2.87l4.01,6.59h8.32l-5.11-8.15C150.4,152.34,151.97,150.43,152.74,148.06z M140.86,149.03h-2.83v-9.51
				h2.83c3.46,0,4.73,1.99,4.73,4.78C145.59,147.08,144.32,149.03,140.86,149.03z"/>
			<path class="st0" d="M158.55,133.02c1.3,1.91,2.25,4.08,2.79,6.46h-5.95v-6.46H158.55z"/>
			<polygon class="st0" points="163.36,161.74 162.99,161.74 162.99,161.15 			"/>
			<path class="st0" d="M153.32,144.3c0,1.35-0.2,2.61-0.58,3.76h-5.93v-14C151.03,135.82,153.32,139.67,153.32,144.3z"/>
			<path class="st0" d="M179,156.84l0.26-0.2v0.53C179.17,157.06,179.08,156.95,179,156.84z"/>
			<polygon class="st0" points="178.28,133.02 178.28,139.48 170.68,139.48 170.68,161.74 162.99,161.74 162.99,139.48 
				155.39,139.48 155.39,133.02 			"/>
			<path class="st0" d="M186.86,133.26v14.8h-2.62c-2.09-1.5-3.38-3.67-3.38-6.8C180.86,137.06,183.44,134.37,186.86,133.26z"/>
			<polygon class="st0" points="166.99,155.12 170.68,152.35 170.68,160.05 			"/>
			<path class="st0" d="M174.39,133.02h3.89v6.46h-5.91C172.61,137.13,173.31,134.96,174.39,133.02z"/>
			<path class="st0" d="M201.8,153.08c0,3.65-1.58,6.6-5.07,8.07c-1.55,0.65-3.48,1.01-5.82,1.01c-6.16,0-9.8-2.69-11.65-4.99
				c-0.09-0.11-0.18-0.22-0.26-0.33l0.26-0.2l5.31-3.98c1.4,1.73,3.13,3.12,6,3.12c2.28,0,3.63-0.67,3.63-2.28
				c0-1.22-0.93-1.81-2.83-2.45l-3.38-1.14c-1.41-0.47-2.69-1.07-3.75-1.85c-2.09-1.5-3.38-3.67-3.38-6.8c0-4.2,2.58-6.89,6-8
				c1.18-0.39,2.47-0.58,3.79-0.58c2.56,0,4.54,0.46,6.08,1.18c1.53,0.7,2.64,1.64,3.47,2.62l-3.47,3.64l-0.92,0.97
				c-1.19-1.23-2.45-2.07-4.73-2.07c-1.86,0-2.79,0.84-2.79,1.98c0,1.1,0.63,1.65,2.03,2.11l3.8,1.27c0.98,0.32,1.85,0.67,2.61,1.05
				C200.46,147.25,201.8,149.72,201.8,153.08z"/>
			<path class="st0" d="M206.54,142.26c3.01,3.48,3.84,7.48,3.84,10.82c0,3-0.7,6-2.15,8.66h-2.92v-28.72h3.21l3.22,3.79
				L206.54,142.26z"/>
			<path class="st0" d="M200.2,136.48l-3.47,3.64v-6.26C198.26,134.56,199.37,135.5,200.2,136.48z"/>
			<path class="st0" d="M196.73,161.15v-15.72c3.73,1.82,5.07,4.29,5.07,7.65C201.8,156.73,200.22,159.68,196.73,161.15z"/>
			<path class="st0" d="M239.23,133.02v26.55c-2.43-1.9-3.89-4.88-3.89-8.94v-17.61H239.23z"/>
			<polygon class="st0" points="230.65,133.02 230.65,161.74 222.96,161.74 222.96,152.62 213,152.62 213,161.74 205.31,161.74 
				205.31,133.02 213,133.02 213,146.15 222.96,146.15 222.96,133.02 			"/>
			<path class="st0" d="M226.76,133.02h3.89v28.72h-0.9c-1.93-3.09-2.99-6.85-2.99-11.11V133.02z"/>
			<path class="st0" d="M260.26,133.02v17.61c0,7.73-5.28,11.53-12.46,11.53c-3.41,0-6.38-0.86-8.57-2.59
				c-2.43-1.9-3.89-4.88-3.89-8.94v-17.61h7.69v17.53c0,3.25,1.52,5.11,4.77,5.11s4.77-1.86,4.77-5.11v-17.53H260.26z"/>
			<rect x="263.43" y="133.02" class="st0" width="5.41" height="6.46"/>
			<rect x="254.85" y="133.02" class="st0" width="5.41" height="15.04"/>
			<polygon class="st0" points="286.32,133.02 286.32,139.48 278.72,139.48 278.72,161.74 271.03,161.74 271.03,139.48 
				263.43,139.48 263.43,133.02 			"/>
			<rect x="288.69" y="133.02" class="st0" width="6.21" height="6.46"/>
			<rect x="280.11" y="133.02" class="st0" width="6.21" height="6.46"/>
			<polygon class="st0" points="311.58,133.02 311.58,139.48 303.97,139.48 303.97,161.74 296.29,161.74 296.29,139.48 
				288.69,139.48 288.69,133.02 			"/>
			<rect x="315.04" y="133.02" class="st0" width="5.11" height="15.04"/>
			<rect x="306.46" y="133.02" class="st0" width="5.12" height="6.46"/>
			<polygon class="st0" points="334.93,155.28 334.93,161.74 315.04,161.74 315.04,133.02 322.73,133.02 322.73,155.28 			"/>
			<rect x="338.48" y="146.7" class="st0" width="5.03" height="15.04"/>
			<rect x="329.9" y="155.28" class="st0" width="5.03" height="6.46"/>
			<polygon class="st0" points="359.22,155.28 359.22,161.74 338.48,161.74 338.48,133.02 358.63,133.02 358.63,139.48 
				346.17,139.48 346.17,146.15 356.56,146.15 356.56,152.28 346.17,152.28 346.17,155.28 			"/>
			<path class="st0" d="M367.8,146.7v2.48c-3.18-1.49-5.29-3.92-5.29-7.92c0-3.65,1.95-6.16,4.7-7.47v12.91H367.8z"/>
			<path class="st0" d="M367.8,154.26v7.28c-3.6-0.98-5.87-2.99-7.15-4.7l5.57-4.18C366.7,153.25,367.21,153.8,367.8,154.26z"/>
			<path class="st0" d="M22.59,149.68l-8.19-17.17c-0.12-0.29-0.38-0.29-0.5,0l-13.98,29.23h7.51l1.06-2.45H19.3l1.1,2.45h7.94
				L22.59,149.68z M10.94,153.54l2.87-6.67l2.96,6.67H10.94z"/>
			<rect x="31.17" y="133.02" class="st0" width="7.69" height="28.72"/>
			<path class="st0" d="M61.79,153.59c0.07-0.04,0.14-0.08,0.21-0.13c3.25-1.87,4.98-5.11,4.98-9.16c0-4.04-1.74-7.48-4.98-9.46
				c-1.87-1.16-4.26-1.82-7.09-1.82h-10.9v28.72h7.69v-6.59h2.87l4.01,6.59h8.32l-4.9-7.82L61.79,153.59z M54.53,149.03H51.7v-9.51
				h2.83c3.46,0,4.73,1.99,4.73,4.78C59.26,147.08,57.99,149.03,54.53,149.03z"/>
			<path class="st0" d="M90.25,136.12c-2.04-1.94-5.01-3.1-8.78-3.1H70.58v28.72h7.68v-6.21h3.21c2.69,0,4.96-0.58,6.79-1.62
				c3.44-1.93,5.29-5.45,5.29-9.61C93.55,141.03,92.41,138.15,90.25,136.12z M81.09,149.03h-2.83v-9.51h2.83
				c3.47,0,4.73,1.99,4.73,4.78C85.82,147.08,84.56,149.03,81.09,149.03z"/>
			<path class="st0" d="M121.76,136.45c-2.78-2.39-6.47-3.77-10.43-3.77c-4.04,0-7.83,1.45-10.63,3.94
				c-2.92,2.6-4.78,6.34-4.78,10.76c0,3.23,0.99,6.11,2.67,8.44c2.82,3.91,7.56,6.3,12.74,6.3c3.96,0,7.65-1.39,10.43-3.79
				c3.04-2.61,4.99-6.43,4.99-10.95C126.75,142.86,124.8,139.05,121.76,136.45z M111.33,155.45c-4.81,0-7.56-3.55-7.56-8.07
				c0-4.52,2.75-8.02,7.56-8.02c4.82,0,7.56,3.5,7.56,8.02C118.89,151.9,116.15,155.45,111.33,155.45z"/>
			<path class="st0" d="M152.74,148.06c0.38-1.15,0.58-2.41,0.58-3.76c0-4.63-2.29-8.48-6.51-10.24c-1.59-0.67-3.45-1.04-5.57-1.04
				h-10.9v28.72h7.69v-6.59h2.87l4.01,6.59h8.32l-5.11-8.15C150.4,152.34,151.97,150.43,152.74,148.06z M140.86,149.03h-2.83v-9.51
				h2.83c3.46,0,4.73,1.99,4.73,4.78C145.59,147.08,144.32,149.03,140.86,149.03z"/>
			<polygon class="st0" points="178.28,133.02 178.28,139.48 170.68,139.48 170.68,161.74 162.99,161.74 162.99,139.48 
				155.39,139.48 155.39,133.02 			"/>
			<path class="st0" d="M201.8,153.08c0,3.65-1.58,6.6-5.07,8.07c-1.55,0.65-3.48,1.01-5.82,1.01c-6.16,0-9.8-2.69-11.65-4.99
				c-0.09-0.11-0.18-0.22-0.26-0.33l0.26-0.2l5.31-3.98c1.4,1.73,3.13,3.12,6,3.12c2.28,0,3.63-0.67,3.63-2.28
				c0-1.22-0.93-1.81-2.83-2.45l-3.38-1.14c-1.41-0.47-2.69-1.07-3.75-1.85c-2.09-1.5-3.38-3.67-3.38-6.8c0-4.2,2.58-6.89,6-8
				c1.18-0.39,2.47-0.58,3.79-0.58c2.56,0,4.54,0.46,6.08,1.18c1.53,0.7,2.64,1.64,3.47,2.62l-3.47,3.64l-0.92,0.97
				c-1.19-1.23-2.45-2.07-4.73-2.07c-1.86,0-2.79,0.84-2.79,1.98c0,1.1,0.63,1.65,2.03,2.11l3.8,1.27c0.98,0.32,1.85,0.67,2.61,1.05
				C200.46,147.25,201.8,149.72,201.8,153.08z"/>
			<path class="st0" d="M383.45,153.08c0,5.28-3.29,9.08-10.89,9.08c-1.8,0-3.38-0.23-4.76-0.62c-3.6-0.98-5.87-2.99-7.15-4.7
				l5.57-4.18c0.48,0.59,0.99,1.14,1.58,1.6c1.13,0.92,2.53,1.52,4.42,1.52c2.28,0,3.63-0.67,3.63-2.28c0-1.22-0.93-1.81-2.83-2.45
				l-3.38-1.14c-0.65-0.21-1.26-0.45-1.84-0.73c-3.18-1.49-5.29-3.92-5.29-7.92c0-3.65,1.95-6.16,4.7-7.47
				c1.51-0.74,3.27-1.11,5.09-1.11c5.07,0,7.86,1.82,9.55,3.8l-4.39,4.61c-1.19-1.23-2.46-2.07-4.74-2.07
				c-1.85,0-2.78,0.84-2.78,1.98c0,1.1,0.63,1.65,2.02,2.11l3.8,1.27C381.51,146.28,383.45,149.03,383.45,153.08z"/>
			<polygon class="st0" points="230.65,133.02 230.65,161.74 222.96,161.74 222.96,152.62 213,152.62 213,161.74 205.31,161.74 
				205.31,133.02 213,133.02 213,146.15 222.96,146.15 222.96,133.02 			"/>
			<path class="st0" d="M260.26,133.02v17.61c0,7.73-5.28,11.53-12.46,11.53c-3.41,0-6.38-0.86-8.57-2.59
				c-2.43-1.9-3.89-4.88-3.89-8.94v-17.61h7.69v17.53c0,3.25,1.52,5.11,4.77,5.11s4.77-1.86,4.77-5.11v-17.53H260.26z"/>
			<polygon class="st0" points="286.32,133.02 286.32,139.48 278.72,139.48 278.72,161.74 271.03,161.74 271.03,139.48 
				263.43,139.48 263.43,133.02 			"/>
			<polygon class="st0" points="311.58,133.02 311.58,139.48 303.97,139.48 303.97,161.74 296.29,161.74 296.29,139.48 
				288.69,139.48 288.69,133.02 			"/>
			<polygon class="st0" points="334.93,155.28 334.93,161.74 315.04,161.74 315.04,133.02 322.73,133.02 322.73,155.28 			"/>
			<polygon class="st0" points="359.22,155.28 359.22,161.74 338.48,161.74 338.48,133.02 358.63,133.02 358.63,139.48 
				346.17,139.48 346.17,146.15 356.56,146.15 356.56,152.28 346.17,152.28 346.17,155.28 			"/>
		</g>
		<g>
			<path class="st5" d="M106.87,177.68l10.82-7.04h5.32v8.67h1.82v3.27h-1.82v2.37H119v-2.37h-12.13V177.68z M110.65,179.32H119
				v-5.13h-0.16l-8.18,5.01V179.32z"/>
			<path class="st5" d="M146.6,170.64v10.78h12.87v3.54h-16.88v-14.32H146.6z"/>
			<path class="st5" d="M194.21,179.5h-13.26v1.92h13.79v3.54h-17.8v-14.32h17.76v3.54h-13.75v1.9h13.26V179.5z"/>
			<path class="st5" d="M227.37,184.96h-14.4v-3.54h14.26c0.14,0,0.25-0.04,0.34-0.12c0.09-0.08,0.13-0.19,0.13-0.33v-1.02
				c0-0.14-0.04-0.25-0.13-0.33c-0.09-0.08-0.2-0.12-0.34-0.12h-10.56c-1.38,0-2.44-0.33-3.2-0.98c-0.76-0.66-1.13-1.58-1.13-2.76
				v-1.35c0-1.19,0.38-2.11,1.15-2.77c0.76-0.66,1.83-0.99,3.19-0.99h13.89v3.54h-13.75c-0.14,0-0.25,0.04-0.34,0.12
				s-0.13,0.19-0.13,0.33v1c0,0.14,0.04,0.25,0.13,0.33s0.2,0.12,0.34,0.12h10.56c1.36,0,2.43,0.33,3.19,0.99
				c0.76,0.66,1.15,1.58,1.15,2.75v1.41c0,1.17-0.38,2.09-1.15,2.74C229.8,184.64,228.73,184.96,227.37,184.96z"/>
			<path class="st5" d="M263.97,184.96h-14.4v-3.54h14.26c0.14,0,0.25-0.04,0.34-0.12c0.09-0.08,0.13-0.19,0.13-0.33v-1.02
				c0-0.14-0.04-0.25-0.13-0.33c-0.09-0.08-0.2-0.12-0.34-0.12h-10.56c-1.38,0-2.44-0.33-3.2-0.98c-0.76-0.66-1.13-1.58-1.13-2.76
				v-1.35c0-1.19,0.38-2.11,1.15-2.77c0.76-0.66,1.83-0.99,3.19-0.99h13.89v3.54h-13.75c-0.14,0-0.25,0.04-0.34,0.12
				s-0.13,0.19-0.13,0.33v1c0,0.14,0.04,0.25,0.13,0.33s0.2,0.12,0.34,0.12h10.56c1.36,0,2.43,0.33,3.19,0.99
				c0.76,0.66,1.15,1.58,1.15,2.75v1.41c0,1.17-0.38,2.09-1.15,2.74C266.4,184.64,265.33,184.96,263.97,184.96z"/>
		</g>
		<g>
			<path class="st0" d="M168.05,80.25c0,0-10.19-0.95-12.2-1.38c-2-0.43-2.9-1.38-2.9-1.38l-0.62,3.03
				c-0.26,3.43,1.19,5.59,1.19,5.59s2.05-0.76,5.91-0.76c3.86,0,11.67,1.14,11.67,1.14L168.05,80.25z M162.79,84.3l-1.71-0.24
				l-1.12-2.6l1.71,0.24L162.79,84.3z M162.43,81.75l2.09,0.24l1.12,2.59l-2.09-0.23L162.43,81.75z M157.84,80.07
				c1.82,0.17,7.36,0.66,9.25,0.83l0.09,0.17l1.99,3.82l-1.05-0.16c0,0-1.33-2.92-1.47-3.21c-2.38-0.34-7.49-1.04-9.66-1.37
				c-0.54-0.09-1.08-0.2-1.62-0.35c-0.46-0.13-0.93-0.27-1.33-0.53C154.99,79.79,156.84,79.98,157.84,80.07z M158.13,83.74
				l-1.12-2.59l0.61,0.12l1.12,2.59L158.13,83.74z M159.48,83.93l-1.12-2.59l0.84,0.11l1.12,2.6L159.48,83.93z"/>
			<path class="st0" d="M228.82,71.29l6.14-0.08c0,0,0-1.11-0.73-2.08c-0.73-0.97-2.03-1.08-2.03-1.08l-5.88-0.29l-0.14,4.29h-1.4
				c0,0-4.15-10.34-5.86-13.34c-1.72-3-4.72-3.76-4.72-3.76c1.75,1.22,2.97,3.57,2.97,3.57c-0.89-0.87-1.6-1.69-2.08-1.75
				c-7.09-0.84-23.39-0.78-23.39-0.78s-16.44-0.13-23.29,0.78c-0.31,0.04-1.42,0.84-2.12,1.58c0,0,1.19-2.07,2.91-3.41
				c0,0-3,0.76-4.72,3.76c-1.71,3-5.86,13.34-5.86,13.34h-1.4l-0.14-4.29l-5.88,0.29c0,0-1.3,0.11-2.03,1.08
				c-0.73,0.97-0.73,2.08-0.73,2.08l6.15,0.08c0,0,0.41-0.03,0.41,0.67l-6.56-0.24c0,0,0.33,1.59,1.05,1.89
				c0.72,0.3,6.37,0.49,6.37,0.49l3.09-1.57l2.26-1.19l30.5-0.38l30.5,0.38l2.26,1.19l3.09,1.57c0,0,5.65-0.19,6.37-0.49
				c0.72-0.3,1.05-1.89,1.05-1.89l-6.56,0.24C228.4,71.26,228.82,71.29,228.82,71.29L228.82,71.29z"/>
			<path class="st0" d="M231.06,80.52l-0.62-3.04c0,0-0.91,0.96-2.91,1.39s-12.19,1.38-12.19,1.38l-3.05,6.24
				c0,0,7.81-1.14,11.67-1.14s5.91,0.76,5.91,0.76S231.31,83.95,231.06,80.52z M216.2,81.07l0.09-0.17
				c1.89-0.17,7.43-0.67,9.25-0.83c1-0.09,2.85-0.28,3.8-0.8c-0.4,0.26-0.88,0.4-1.33,0.53c-0.54,0.15-1.08,0.26-1.63,0.36
				c-2.16,0.32-7.27,1.02-9.66,1.36c-0.13,0.29-1.46,3.21-1.46,3.21l-1.05,0.17L216.2,81.07z M217.74,84.58l1.11-2.59l2.1-0.24
				l-1.12,2.59L217.74,84.58z M221.71,81.7l1.71-0.24l-1.12,2.6l-1.71,0.24L221.71,81.7z M223.89,83.93l-0.83,0.12l1.12-2.59
				l0.83-0.12L223.89,83.93z M224.63,83.86l1.12-2.6l0.62-0.12l-1.12,2.6L224.63,83.86z"/>
			<path class="st0" d="M212.11,79.52l-20.42-0.13l-20.42,0.13c-0.9,0.01-1.48,0.95-1.09,1.75c1.21,2.46,3.42,6.8,4.7,8.08
				c1.81,1.81,2.35,1.78,4.48,2.38c2.12,0.6,12.33,2.54,12.33,2.54s10.21-1.94,12.34-2.54s2.67-0.57,4.48-2.38
				c1.27-1.28,3.49-5.62,4.69-8.08C213.59,80.47,213.01,79.53,212.11,79.52z M211.93,81c-0.78,1.41-2.61,4.74-3.26,6.04
				c-0.84,1.66-2.08,3.07-4.55,3.9c-2.48,0.84-12.43,2.46-12.43,2.46s-9.94-1.62-12.42-2.46c-2.48-0.83-3.72-2.24-4.55-3.9
				c-0.65-1.3-2.49-4.63-3.27-6.04c-0.15-0.28,0.05-0.63,0.38-0.63l19.86,0.14l19.87-0.14C211.88,80.37,212.09,80.72,211.93,81z"/>
			<path class="st0" d="M211.29,80.72h-4.01l-1,0.62h-14.59H177.1l-1-0.62h-4.01c-0.14,0-0.23,0.15-0.16,0.27l2.14,3.9
				c0.13,0.24,0.37,0.4,0.64,0.44l16.98,2.04l16.98-2.04c0.27-0.03,0.51-0.2,0.64-0.44l2.14-3.9
				C211.52,80.87,211.43,80.72,211.29,80.72L211.29,80.72z"/>
			<path class="st0" d="M216.8,71.98h4.48c0,0-4.21,3.47-5.76,7.68c0,0,1.01-5.01,2.56-6.77L216.8,71.98z"/>
			<path class="st0" d="M166.46,71.91h-4.48c0,0,4.21,3.47,5.76,7.68c0,0-1.01-5.01-2.56-6.77L166.46,71.91z"/>
			<path d="M148.71,70.95h5.85c0,0,0.59,0,0.59,0.96c0,0,0-3.92,1.76-3.92l-5.79,0.27C151.13,68.26,148.9,68.81,148.71,70.95
				L148.71,70.95z"/>
			<path d="M234.68,70.95h-5.85c0,0-0.59,0-0.59,0.96c0,0,0-3.92-1.76-3.92l5.79,0.27C232.27,68.26,234.49,68.81,234.68,70.95
				L234.68,70.95z"/>
			<path d="M153.19,79.86c0,0-0.57,2.6,0.61,5.59c0,0,1.57-0.54,4.25-0.42C158.05,85.03,153.5,84.26,153.19,79.86L153.19,79.86z"/>
			<path d="M230.12,80.2c0,0,0.54,2.44-0.57,5.25c0,0-1.47-0.5-3.99-0.4C225.56,85.05,229.83,84.33,230.12,80.2L230.12,80.2z"/>
			<path d="M169.58,84.17l1.08,2.02c0,0-8.06-1.14-9.95-1.14l8.05,0.48c0.48,0.03,0.87-0.37,0.84-0.84L169.58,84.17z"/>
			<path d="M213.83,84.17l-1.08,2.02c0,0,8.06-1.14,9.95-1.14l-8.05,0.48c-0.48,0.03-0.87-0.37-0.84-0.84L213.83,84.17z"/>
			<path d="M175.95,81.22l0.96,0.57h29.47l1.13-0.7h3.41l-2.15,3.83l-17.04,2.07l-17.14-2.09l-2.15-3.79
				C172.44,81.1,176.03,81.13,175.95,81.22L175.95,81.22z"/>
			<path class="st0" d="M173.01,81.39l1.87,3.31l16.85,2.09l-15.16-2.74c-0.61-0.11-1.17-0.4-1.62-0.82L173.01,81.39z"/>
			<path class="st0" d="M207.73,81.5l-0.96,0.62h-15.44l16.52,0.51c0,0,0,1.47-0.29,1.53c-1.43,0.28-8.82,1.36-8.82,1.36l9.73-0.9
				l1.64-3.19L207.73,81.5z"/>
			<path d="M148.75,71.91l0.45,1.06c0,0,0.06,0.47,1.1,0.59c1.04,0.13,5.32,0.32,5.32,0.32S149.58,73.48,148.75,71.91L148.75,71.91z
				"/>
			<path d="M234.61,71.91l-0.45,1.06c0,0-0.06,0.47-1.1,0.59c-1.04,0.13-5.32,0.32-5.32,0.32S233.78,73.48,234.61,71.91
				L234.61,71.91z"/>
			<path d="M169.22,57.63c0,0-1.3-0.28-2.26,2.04c-0.96,2.32-4.47,10.01-4.47,10.01s-0.34,0.45,0.74,0.45
				c1.07,0,26.92-0.17,26.92-0.17s-25.25-0.14-25.08-1.39C165.23,67.33,169.22,57.63,169.22,57.63L169.22,57.63z"/>
			<path d="M191.19,56.53l6.74,0.02c0,0,0.41-0.06,0.59,0.68c0.17,0.7,2.28,10.55,2.76,12.52c0.04,0.18-0.09,0.35-0.28,0.35
				l-3.07,0.02c-0.32,0-0.6-0.23-0.66-0.54C196.81,67.05,194.62,56.53,191.19,56.53L191.19,56.53z"/>
			<path d="M199.46,56.66l2.76,13.19c0,0-0.13,0.3,0.64,0.3h1.06c0,0,0.08-0.04,0-0.42c-0.08-0.38-2.83-13.05-2.83-13.05
				L199.46,56.66z"/>
			<path d="M205.78,56.79l8.44,0.51c0,0,1.36,0.04,1.95,1.23c0.59,1.19,4.79,11.88,4.79,11.88S216.64,57.21,205.78,56.79
				L205.78,56.79z"/>
			<polygon class="st5" points="193.34,224.1 196.42,233.58 206.39,233.58 198.32,239.45 201.41,248.93 193.34,243.07 
				185.27,248.93 188.35,239.45 180.28,233.58 190.25,233.58 			"/>
			<polygon class="st5" points="165.05,228.44 167.05,234.61 173.54,234.61 168.29,238.42 170.29,244.58 165.05,240.77 
				159.8,244.58 161.81,238.42 156.56,234.61 163.05,234.61 			"/>
			<polygon class="st5" points="221.64,228.44 223.64,234.61 230.13,234.61 224.88,238.42 226.89,244.58 221.64,240.77 
				216.4,244.58 218.4,238.42 213.15,234.61 219.64,234.61 			"/>
		</g>
	</g>
</g>
</svg>
